<svg width="41" height="44" viewBox="0 0 41 44" fill="none" xmlns="http://www.w3.org/2000/svg">
<ellipse cx="20" cy="39.9168" rx="20" ry="3.1467" fill="url(#paint0_radial)" fill-opacity="0.5"/>
<path d="M21 2.68088C17.3546 2.68539 13.8597 4.20633 11.282 6.91007C8.70435 9.61382 7.25432 13.2796 7.25001 17.1032C7.24565 20.228 8.21874 23.2679 10.02 25.7567C10.02 25.7567 10.395 26.2746 10.4563 26.3493L21 39.3924L31.5488 26.3427C31.6038 26.2733 31.98 25.7567 31.98 25.7567L31.9813 25.7527C33.7816 23.265 34.7543 20.2265 34.75 17.1032C34.7457 13.2796 33.2957 9.61382 30.718 6.91007C28.1403 4.20633 24.6454 2.68539 21 2.68088ZM25.5 23.6589L21 20.6551L16.5 23.6589L17.25 18.3173L13.5 14.7078L18.75 14.0431L21 9.2365L23.39 14.0444L28.5 14.7078L24.75 18.3173L25.5 23.6589Z" fill="#F73E3E"/>
<defs>
<radialGradient id="paint0_radial" cx="0" cy="0" r="1" gradientUnits="userSpaceOnUse" gradientTransform="translate(20 39.9168) rotate(90) scale(3.1467 20)">
<stop stop-color="#111111"/>
<stop offset="1" stop-color="#111111" stop-opacity="0"/>
</radialGradient>
</defs>
</svg>
