<svg width="20" height="20" viewBox="0 0 20 20" fill="none" xmlns="http://www.w3.org/2000/svg">
<path d="M18.4025 3H1.59751C1.43905 3.00018 1.28715 3.06086 1.17513 3.16872C1.06311 3.27658 1.00012 3.42282 1 3.57533V4.73273C1 4.78605 1.06008 4.84725 1.10917 4.872L9.94226 9.72817C9.96488 9.74062 9.99054 9.74707 10.0166 9.74685C10.0432 9.74692 10.0694 9.74008 10.0923 9.72705L18.6585 4.87673C18.7066 4.85085 18.8343 4.78245 18.8822 4.75095C18.9402 4.71293 19 4.6785 19 4.61033V3.5751C18.9998 3.42263 18.9368 3.27645 18.8248 3.16864C18.7128 3.06083 18.5609 3.00018 18.4025 3Z" fill="#2B7AF1"/>
<path d="M18.9254 6.47777C18.9024 6.46515 18.8763 6.45859 18.8498 6.45874C18.8234 6.4589 18.7974 6.46578 18.7746 6.47867L13.927 9.2239C13.9077 9.23473 13.8911 9.24961 13.8786 9.26744C13.8661 9.28526 13.8579 9.30557 13.8546 9.32686C13.8514 9.34815 13.8531 9.36987 13.8598 9.39041C13.8664 9.41095 13.8778 9.42979 13.8931 9.44552L18.7414 14.4758C18.7553 14.4904 18.7722 14.502 18.7909 14.5099C18.8097 14.5178 18.83 14.5218 18.8506 14.5217C18.8901 14.5217 18.9281 14.5065 18.9561 14.4796C18.9841 14.4526 18.9999 14.4161 18.9999 14.378V6.60265C19 6.57735 18.9932 6.55248 18.9801 6.53056C18.967 6.50863 18.9481 6.49042 18.9254 6.47777Z" fill="#2B7AF1"/>
<path d="M12.53 10.1457C12.507 10.1216 12.4761 10.1058 12.4425 10.1009C12.4088 10.0961 12.3745 10.1025 12.3451 10.1191L10.4021 11.2196C10.2882 11.2829 10.1592 11.3166 10.0278 11.3175C9.89627 11.3183 9.76683 11.2862 9.65214 11.2243L7.94214 10.2841C7.91453 10.2689 7.88264 10.2626 7.85108 10.2661C7.81951 10.2696 7.78992 10.2827 7.76658 10.3034L1.27303 16.1008C1.256 16.1161 1.24293 16.135 1.23486 16.156C1.22678 16.1771 1.22392 16.1997 1.22651 16.2219C1.2291 16.2442 1.23706 16.2656 1.24977 16.2844C1.26247 16.3032 1.27956 16.3189 1.29968 16.3303C1.40066 16.3874 1.49814 16.4146 1.59726 16.4146H18.2304C18.2595 16.4147 18.288 16.4065 18.3123 16.3911C18.3366 16.3757 18.3557 16.3538 18.3672 16.328C18.3788 16.3024 18.3824 16.2741 18.3775 16.2465C18.3726 16.219 18.3594 16.1934 18.3396 16.173L12.53 10.1457Z" fill="#2B7AF1"/>
<path d="M6.33782 9.61787C6.35502 9.60257 6.36824 9.58358 6.37641 9.56245C6.38458 9.54132 6.38747 9.51864 6.38486 9.49624C6.38224 9.47383 6.37418 9.45234 6.36134 9.43348C6.3485 9.41463 6.33124 9.39894 6.31094 9.38769L1.22278 6.59049C1.20007 6.57809 1.17438 6.57163 1.14827 6.57178C1.12216 6.57193 1.09654 6.57867 1.07399 6.59134C1.05143 6.604 1.03273 6.62214 1.01975 6.64395C1.00676 6.66576 0.999954 6.69046 1 6.71559V14.0551C0.999838 14.0831 1.00822 14.1106 1.0241 14.1341C1.03999 14.1576 1.06268 14.1761 1.08938 14.1873C1.11607 14.1985 1.1456 14.2019 1.17429 14.1971C1.20299 14.1924 1.2296 14.1796 1.25083 14.1604L6.33782 9.61787Z" fill="#2B7AF1"/>
</svg>
