<svg width="106" height="42" viewBox="0 0 106 42" fill="none" xmlns="http://www.w3.org/2000/svg">
<path d="M91.6828 0.18811V3.00842H99.9869C100.284 3.00842 100.597 3.05018 100.925 3.13368C101.254 3.21741 101.546 3.41566 101.8 3.72913C102.013 3.97986 102.145 4.24086 102.198 4.51258C102.251 4.78407 102.278 5.04529 102.278 5.29602V6.45544H94.96C94.5145 6.45544 94.0213 6.50244 93.4805 6.59644C92.9396 6.69043 92.4039 6.96717 91.8736 7.42688C91.2373 7.97009 90.8396 8.5968 90.6805 9.30702C90.5216 10.0175 90.4419 10.7382 90.4419 11.4694C90.4419 11.7826 90.4526 12.1378 90.4739 12.5348C90.495 12.9318 90.5533 13.339 90.6487 13.757C90.7442 14.1747 90.8927 14.5769 91.0942 14.9634C91.2957 15.3499 91.566 15.6893 91.9056 15.9818C92.3934 16.3995 92.9077 16.6398 93.4485 16.7025C93.9894 16.7653 94.4932 16.7965 94.96 16.7965H103.009C103.412 16.7965 103.826 16.76 104.25 16.6868C104.674 16.6138 105.035 16.431 105.332 16.1385C105.629 15.8461 105.815 15.4908 105.889 15.0729C105.963 14.6552 106 14.2999 106 14.0075V5.39002C106 4.44984 105.883 3.65088 105.65 2.99268C105.417 2.33472 105.12 1.82801 104.759 1.47279C104.378 1.07605 103.879 0.762584 103.264 0.532843C102.649 0.302875 101.981 0.18811 101.259 0.18811H91.6828ZM102.278 9.27576V13.0988C102.278 13.2242 102.267 13.3442 102.246 13.4592C102.224 13.574 102.15 13.6837 102.023 13.7882C101.896 13.8927 101.753 13.9502 101.593 13.9605C101.434 13.971 101.302 13.9762 101.196 13.9762H96.0097C95.7764 13.9762 95.5485 13.924 95.3257 13.8195C95.1031 13.715 94.928 13.6002 94.8008 13.4747C94.5675 13.245 94.4242 12.942 94.3714 12.566C94.3183 12.1901 94.2917 11.8766 94.2917 11.6259C94.2917 11.0201 94.3447 10.5919 94.4508 10.3412C94.5569 10.0905 94.6417 9.92323 94.7054 9.83973C94.9173 9.56824 95.1666 9.40626 95.4531 9.35401C95.7394 9.30177 95.9462 9.27576 96.0734 9.27576H102.278Z" fill="#2B7AF1"/>
<path d="M72.4661 13.9761H70.939V16.7964H89.9333V13.9761H88.4381L83.1566 1.6294C82.9868 1.21167 82.7164 0.835684 82.3451 0.501225C81.9741 0.166995 81.3431 0 80.4522 0C79.5825 0 78.9568 0.156509 78.5751 0.469978C78.1931 0.783447 77.9068 1.16992 77.7159 1.6294L72.4661 13.9761ZM80.1022 3.66626C80.1446 3.56177 80.1977 3.46253 80.2611 3.36854C80.3248 3.27454 80.3885 3.22754 80.4522 3.22754C80.5581 3.22754 80.6271 3.27979 80.6589 3.38428C80.6908 3.48877 80.7279 3.58276 80.7702 3.66626L84.8109 13.9761H76.0933L80.1022 3.66626Z" fill="#2B7AF1"/>
<path d="M69.9848 16.7965V0.18811H66.2624V6.83142H58.2128V0.18811H54.4902V16.7965H58.2128V9.65174H66.2624V16.7965H69.9848Z" fill="#2B7AF1"/>
<path d="M51.8487 16.7963V13.976H43.6083C43.269 13.976 42.9243 13.955 42.5743 13.9133C42.2243 13.8715 41.89 13.7828 41.572 13.647C41.2537 13.5113 40.9781 13.3128 40.7448 13.0516C40.5113 12.7904 40.3311 12.4406 40.204 12.0019C40.1403 11.7512 40.0872 11.3959 40.0448 10.9365C40.0025 10.4768 39.9811 10.0693 39.9811 9.71429H49.7807C50.12 9.71429 50.4434 9.67254 50.751 9.58881C51.0586 9.50531 51.3396 9.33832 51.5942 9.08759C51.9546 8.73237 52.1774 8.33014 52.2622 7.88115C52.347 7.43194 52.3896 6.99847 52.3896 6.58051C52.3896 6.05829 52.3576 5.54131 52.2941 5.02936C52.2304 4.51763 52.1084 4.02667 51.9282 3.55669C51.748 3.08649 51.5041 2.65302 51.1964 2.25605C50.8888 1.85908 50.4911 1.50409 50.0033 1.19062C49.2185 0.710148 48.3436 0.412417 47.3784 0.297661C46.4134 0.182677 45.4324 0.125183 44.4355 0.125183C44.0324 0.125183 43.5659 0.13568 43.0355 0.156441C42.5053 0.177431 41.9537 0.234924 41.3811 0.328919C40.8083 0.422915 40.241 0.5744 39.6788 0.78338C39.1169 0.992131 38.6025 1.29511 38.1359 1.69208C37.6692 2.08905 37.3032 2.52777 37.0382 3.00824C36.773 3.48871 36.5715 4.01617 36.4336 4.59064C36.2958 5.1651 36.211 5.79205 36.1791 6.47101C36.1473 7.14996 36.1313 7.87591 36.1313 8.64887C36.1313 9.75605 36.1951 10.8425 36.3222 11.9079C36.4496 12.9733 36.789 13.903 37.3405 14.6967C37.6799 15.1772 38.0616 15.5584 38.4857 15.8406C38.9101 16.1226 39.3448 16.3366 39.7903 16.4829C40.2357 16.6291 40.6918 16.7181 41.1583 16.7493C41.625 16.7806 42.0705 16.7963 42.4946 16.7963H51.8487ZM39.9811 6.89398C40.0025 6.35077 40.0395 5.84407 40.0925 5.37409C40.1456 4.90411 40.3629 4.46014 40.7448 4.04241C40.9994 3.77069 41.2804 3.55669 41.588 3.39996C41.8954 3.24322 42.2083 3.13349 42.5266 3.07098C42.8446 3.00824 43.1522 2.97173 43.4492 2.96124C43.7461 2.95074 44.0218 2.9455 44.2764 2.9455C44.8066 2.9455 45.3528 2.982 45.9149 3.05524C46.4769 3.12824 46.9913 3.34247 47.4581 3.69769C47.7337 3.90644 47.9829 4.19892 48.2056 4.57513C48.4284 4.95111 48.5398 5.40033 48.5398 5.92255C48.5398 6.15229 48.4921 6.37176 48.3966 6.58051C48.3012 6.78949 48.0731 6.89398 47.7124 6.89398H39.9811Z" fill="#2B7AF1"/>
<path d="M1.92935 0.18811V3.00842H10.2335C10.5304 3.00842 10.8431 3.05018 11.172 3.13368C11.5007 3.21741 11.7924 3.41566 12.0469 3.72913C12.2591 3.97986 12.3916 4.24086 12.4446 4.51258C12.4977 4.78407 12.5241 5.04529 12.5241 5.29602V6.45544H5.20649C4.76106 6.45544 4.26793 6.50244 3.72706 6.59644C3.18619 6.69043 2.65039 6.96717 2.12018 7.42688C1.48388 7.97009 1.08617 8.5968 0.927033 9.30702C0.768132 10.0175 0.688477 10.7382 0.688477 11.4694C0.688477 11.7826 0.699106 12.1378 0.720417 12.5348C0.741496 12.9318 0.799886 13.339 0.895319 13.757C0.990753 14.1747 1.13924 14.5769 1.34076 14.9634C1.54229 15.3499 1.81259 15.6893 2.15217 15.9818C2.63999 16.3995 3.1542 16.6398 3.69507 16.7025C4.23594 16.7653 4.73975 16.7965 5.20649 16.7965H13.2558C13.6589 16.7965 14.0726 16.76 14.4967 16.6868C14.921 16.6138 15.2815 16.431 15.5784 16.1385C15.8754 15.8461 16.0612 15.4908 16.1353 15.0729C16.2096 14.6552 16.2467 14.2999 16.2467 14.0075V5.39002C16.2467 4.44984 16.1299 3.65088 15.8967 2.99268C15.6634 2.33472 15.3665 1.82801 15.0058 1.47279C14.6241 1.07605 14.1256 0.762584 13.5104 0.532843C12.8954 0.302875 12.2271 0.18811 11.5061 0.18811H1.92935ZM12.5241 9.27576V13.0988C12.5241 13.2242 12.5137 13.3442 12.4924 13.4592C12.4711 13.574 12.3969 13.6837 12.2695 13.7882C12.1423 13.8927 11.9992 13.9502 11.8401 13.9605C11.6809 13.971 11.5484 13.9762 11.4424 13.9762H6.25627C6.02301 13.9762 5.7951 13.924 5.57227 13.8195C5.34966 13.715 5.17454 13.6002 5.04738 13.4747C4.81412 13.245 4.67072 12.942 4.6179 12.566C4.56486 12.1901 4.53823 11.8766 4.53823 11.6259C4.53823 11.0201 4.5913 10.5919 4.69739 10.3412C4.80348 10.0905 4.88822 9.92323 4.95192 9.83973C5.16386 9.56824 5.41313 9.40626 5.69967 9.35401C5.98597 9.30177 6.1928 9.27576 6.31997 9.27576H12.5241Z" fill="#2B7AF1"/>
<path fill-rule="evenodd" clip-rule="evenodd" d="M4.6327 20.9936H101.24C103.788 20.9936 105.873 23.0469 105.873 25.5564V36.954C105.873 39.4636 103.788 41.5169 101.24 41.5169H4.6327C2.08472 41.5169 0 39.4636 0 36.954V25.5564C0 23.0469 2.08472 20.9936 4.6327 20.9936Z" fill="#FF7D03"/>
<path d="M15.0794 36.3927L11.0689 32.2678C10.9977 32.1978 10.9238 32.0958 10.8469 31.9619C10.77 31.8277 10.7316 31.7144 10.7316 31.621C10.7316 31.4696 10.7849 31.3267 10.8912 31.1928C10.9977 31.0589 11.0925 30.951 11.1752 30.8695L14.7421 27.1291H12.2754L9.27644 30.4151C9.14626 30.5666 9.0043 30.747 8.8505 30.9569C8.69669 31.1666 8.61977 31.3879 8.61977 31.621C8.61977 31.854 8.68186 32.0639 8.80625 32.2503C8.93041 32.4367 9.04575 32.5881 9.1523 32.7047L12.5772 36.3927H15.0794ZM8.21165 36.3927V27.1291H6.13525V36.3927H8.21165ZM22.2844 31.5861C22.5209 31.5629 22.734 31.5015 22.9232 31.4025C23.1125 31.3035 23.2723 31.1841 23.4022 31.0443C23.5917 30.8344 23.7099 30.5869 23.7573 30.3015C23.8046 30.0158 23.8282 29.7507 23.8282 29.5061C23.8282 29.2846 23.8046 29.0109 23.7573 28.6846C23.7099 28.3584 23.5679 28.0613 23.3314 27.7932C23.1894 27.6301 23.0268 27.5049 22.8433 27.4175C22.6599 27.3301 22.4736 27.263 22.2844 27.2165C22.0951 27.1697 21.9057 27.1435 21.7164 27.1378C21.5272 27.1319 21.3555 27.1291 21.2019 27.1291H16.9429C16.7416 27.1291 16.5318 27.1494 16.3129 27.1903C16.094 27.2311 15.8838 27.3329 15.6828 27.496C15.4817 27.6593 15.3604 27.8398 15.3191 28.0378C15.2777 28.2361 15.2568 28.4165 15.2568 28.5797V35.0293C15.2568 35.1808 15.2746 35.3555 15.3101 35.5538C15.3458 35.7518 15.4463 35.9206 15.6119 36.0605C15.7775 36.212 15.9756 36.3053 16.2063 36.3402C16.437 36.3751 16.6529 36.3927 16.8542 36.3927H21.3261C21.5983 36.3927 21.9117 36.3664 22.2666 36.3139C22.6214 36.2615 22.9408 36.0956 23.2248 35.8159C23.3786 35.6644 23.497 35.4954 23.5799 35.309C23.6626 35.1226 23.7247 34.9362 23.7662 34.7496C23.8076 34.5632 23.8342 34.3855 23.8461 34.2166C23.8579 34.0476 23.8637 33.8991 23.8637 33.7708C23.8637 33.5263 23.8431 33.2669 23.8016 32.9931C23.7601 32.7193 23.6448 32.4659 23.4555 32.2327C23.3492 32.1047 23.1954 31.9792 22.9941 31.8569C22.7931 31.7347 22.5566 31.6559 22.2844 31.621V31.5861ZM17.3332 30.8171V29.1566C17.3332 29.0982 17.3392 29.04 17.351 28.9819C17.3628 28.9235 17.3983 28.8653 17.4573 28.8069C17.5166 28.7487 17.5817 28.7168 17.6526 28.7108C17.7237 28.7049 17.7886 28.7022 17.8479 28.7022H20.5807C20.7227 28.7022 20.8647 28.7138 21.0067 28.7371C21.1487 28.7603 21.2786 28.8245 21.397 28.9294C21.5272 29.0458 21.6071 29.1799 21.6365 29.3314C21.6662 29.4829 21.681 29.6284 21.681 29.7683C21.681 29.8965 21.6662 30.0275 21.6365 30.1616C21.6071 30.2955 21.5332 30.4208 21.4148 30.5374C21.2847 30.6656 21.1396 30.7443 20.98 30.7733C20.8202 30.8025 20.6754 30.8171 20.5453 30.8171H17.3332ZM17.3332 32.3901H20.5807C20.6991 32.3901 20.8439 32.4047 21.0155 32.4337C21.1871 32.4629 21.3379 32.5473 21.4681 32.6872C21.5862 32.8154 21.6574 32.9582 21.681 33.1154C21.7046 33.2728 21.7164 33.4213 21.7164 33.5612C21.7164 33.7127 21.7016 33.8815 21.6722 34.0681C21.6425 34.2545 21.5626 34.4117 21.4324 34.5399C21.3025 34.6681 21.1487 34.7468 20.9713 34.7758C20.7936 34.805 20.6279 34.8196 20.4741 34.8196H17.8833C17.8006 34.8196 17.7207 34.8137 17.6438 34.802C17.5669 34.7904 17.4988 34.7496 17.4397 34.6798C17.4043 34.6216 17.3777 34.5545 17.3598 34.4788C17.342 34.403 17.3332 34.3302 17.3332 34.2602V32.3901ZM25.4786 27.1291V28.7022H30.1104C30.276 28.7022 30.4505 28.7254 30.6339 28.772C30.8171 28.8185 30.98 28.9294 31.1217 29.1042C31.2401 29.244 31.314 29.3896 31.3436 29.5411C31.3733 29.6925 31.3881 29.8381 31.3881 29.978V30.6247H27.3065C27.0579 30.6247 26.783 30.651 26.4811 30.7034C26.1796 30.7559 25.8808 30.9101 25.585 31.1666C25.2301 31.4696 25.0084 31.8191 24.9197 32.2154C24.8307 32.6114 24.7865 33.0134 24.7865 33.4213C24.7865 33.5961 24.7923 33.7941 24.8044 34.0156C24.8162 34.2369 24.8486 34.4642 24.9019 34.6973C24.9551 34.9303 25.0378 35.1545 25.1502 35.3701C25.2628 35.5857 25.4135 35.7751 25.6028 35.9382C25.875 36.1714 26.1617 36.3053 26.4635 36.3402C26.7651 36.3751 27.0461 36.3927 27.3065 36.3927H31.7963C32.0209 36.3927 32.2516 36.3724 32.4884 36.3315C32.7249 36.2907 32.9259 36.1887 33.0916 36.0256C33.2572 35.8625 33.3607 35.6644 33.4022 35.4313C33.4436 35.1983 33.4643 35.0003 33.4643 34.8372V30.0304C33.4643 29.5061 33.3992 29.0604 33.269 28.6933C33.139 28.3264 32.9734 28.0437 32.7721 27.8457C32.5592 27.6242 32.2813 27.4494 31.9382 27.3212C31.5949 27.1932 31.2225 27.1291 30.8201 27.1291H25.4786ZM31.3881 32.1978V34.3302C31.3881 34.4001 31.3821 34.4671 31.3703 34.5312C31.3585 34.5954 31.317 34.6565 31.2461 34.7147C31.175 34.7731 31.0951 34.805 31.0064 34.8109C30.9177 34.8166 30.8438 34.8196 30.7847 34.8196H27.892C27.7619 34.8196 27.6347 34.7904 27.5106 34.7322C27.3864 34.6738 27.2886 34.6099 27.2178 34.5399C27.0876 34.4117 27.0077 34.2429 26.978 34.033C26.9486 33.8233 26.9338 33.6485 26.9338 33.5087C26.9338 33.1708 26.9634 32.932 27.0225 32.7921C27.0816 32.6523 27.129 32.5589 27.1645 32.5124C27.2828 32.3609 27.4218 32.2706 27.5814 32.2416C27.7412 32.2124 27.8566 32.1978 27.9275 32.1978H31.3881ZM36.9603 36.3927H39.5868C39.8233 36.3927 40.0867 36.384 40.3765 36.3664C40.6663 36.3489 40.962 36.2966 41.2636 36.2092C41.5654 36.1219 41.8552 35.9877 42.1332 35.807C42.4114 35.6266 42.6627 35.379 42.8874 35.0642C43.0533 34.8312 43.1862 34.5748 43.2868 34.2953C43.3873 34.0156 43.4642 33.7243 43.5174 33.4213C43.5707 33.1184 43.6034 32.8097 43.6152 32.4951C43.627 32.1805 43.6328 31.8715 43.6328 31.5686C43.6328 31.3121 43.627 31.0354 43.6152 30.7384C43.6034 30.4413 43.5649 30.1411 43.4998 29.8381C43.4348 29.5354 43.3342 29.2381 43.198 28.9467C43.0621 28.6554 42.8756 28.3876 42.6391 28.1428C42.4144 27.9098 42.1716 27.7262 41.9115 27.5923C41.6512 27.4581 41.3938 27.3564 41.1395 27.2863C40.8851 27.2165 40.6486 27.1727 40.4297 27.1554C40.2108 27.1378 40.0244 27.1291 39.8706 27.1291H36.5876C36.4102 27.1291 36.2149 27.1465 36.0021 27.1814C35.7892 27.2165 35.5939 27.2979 35.4165 27.4262C35.2981 27.5195 35.1797 27.6564 35.0616 27.8368C34.9432 28.0175 34.8839 28.2593 34.8839 28.5623V39.364H36.9603V36.3927ZM36.9603 34.8196V29.1391C36.9603 29.0225 37.0076 28.9178 37.1023 28.8245C37.1378 28.8012 37.1822 28.7749 37.2355 28.7457C37.2886 28.7168 37.3388 28.7022 37.3863 28.7022H39.427C39.8884 28.7022 40.273 28.8012 40.5806 28.9992C40.8882 29.1972 41.1071 29.4477 41.2372 29.7507C41.2963 29.8789 41.3526 30.0859 41.4056 30.3713C41.4589 30.6567 41.4855 31.1141 41.4855 31.7433C41.4855 32.4309 41.4441 32.9377 41.3614 33.2639C41.2785 33.5904 41.1897 33.8233 41.0952 33.9632C40.9769 34.1496 40.7816 34.3389 40.5094 34.5312C40.2375 34.7236 39.8412 34.8196 39.3205 34.8196H36.9603ZM49.7019 36.3927V28.7022H53.2334V27.1291H44.0942V28.7022H47.6257V36.3927H49.7019ZM63.1534 36.3927V28.44C63.1534 28.0903 63.0943 27.8224 62.976 27.6358C62.8576 27.4494 62.7246 27.3096 62.5766 27.2165C62.4288 27.1232 62.278 27.0678 62.1242 27.0504C61.9704 27.0328 61.8579 27.0242 61.787 27.0242C61.5741 27.0242 61.3552 27.062 61.1303 27.1378C60.9056 27.2135 60.6985 27.3853 60.5093 27.6534L56.3211 33.7184C56.2856 33.7768 56.2502 33.832 56.2148 33.8845C56.1793 33.9369 56.1318 33.9632 56.0727 33.9632C56.0016 33.9632 55.9604 33.9429 55.9486 33.902C55.9368 33.8612 55.9308 33.8 55.9308 33.7184L56.0195 27.1291H53.9431V35.1867C53.9431 35.3149 53.9579 35.4545 53.9876 35.606C54.0172 35.7575 54.0793 35.8974 54.1738 36.0256C54.2686 36.1538 54.4045 36.2645 54.5822 36.3578C54.7596 36.4508 55.0021 36.4976 55.3098 36.4976C55.6646 36.4976 55.9368 36.4365 56.126 36.3139C56.3153 36.1917 56.4927 36.0082 56.6583 35.7634L60.7933 29.8032C60.8641 29.6985 60.9174 29.6314 60.9529 29.6022C60.9883 29.5732 61.018 29.5586 61.0416 29.5586C61.1127 29.5586 61.1481 29.5819 61.1481 29.6284C61.1481 29.675 61.1481 29.7334 61.1481 29.8032L61.0772 36.3927H63.1534ZM66.6495 36.3927H69.2759C69.5124 36.3927 69.7759 36.384 70.0656 36.3664C70.3554 36.3489 70.6512 36.2966 70.9528 36.2092C71.2546 36.1219 71.5444 35.9877 71.8223 35.807C72.1005 35.6266 72.3518 35.379 72.5765 35.0642C72.7424 34.8312 72.8753 34.5748 72.9759 34.2953C73.0764 34.0156 73.1533 33.7243 73.2066 33.4213C73.2599 33.1184 73.2925 32.8097 73.3043 32.4951C73.3161 32.1805 73.3219 31.8715 73.3219 31.5686C73.3219 31.3121 73.3161 31.0354 73.3043 30.7384C73.2925 30.4413 73.2541 30.1411 73.189 29.8381C73.1239 29.5354 73.0233 29.2381 72.8871 28.9467C72.7512 28.6554 72.5647 28.3876 72.3282 28.1428C72.1036 27.9098 71.8608 27.7262 71.6007 27.5923C71.3403 27.4581 71.083 27.3564 70.8286 27.2863C70.5743 27.2165 70.3378 27.1727 70.1189 27.1554C69.9 27.1378 69.7135 27.1291 69.5597 27.1291H66.2768C66.0993 27.1291 65.904 27.1465 65.6912 27.1814C65.4783 27.2165 65.283 27.2979 65.1056 27.4262C64.9872 27.5195 64.8689 27.6564 64.7507 27.8368C64.6324 28.0175 64.5731 28.2593 64.5731 28.5623V39.364H66.6495V36.3927ZM66.6495 34.8196V29.1391C66.6495 29.0225 66.6967 28.9178 66.7914 28.8245C66.8269 28.8012 66.8713 28.7749 66.9246 28.7457C66.9777 28.7168 67.0279 28.7022 67.0754 28.7022H69.1162C69.5776 28.7022 69.9621 28.8012 70.2697 28.9992C70.5773 29.1972 70.7962 29.4477 70.9263 29.7507C70.9854 29.8789 71.0417 30.0859 71.0948 30.3713C71.1481 30.6567 71.1747 31.1141 71.1747 31.7433C71.1747 32.4309 71.1332 32.9377 71.0505 33.2639C70.9676 33.5904 70.8789 33.8233 70.7844 33.9632C70.666 34.1496 70.4707 34.3389 70.1986 34.5312C69.9266 34.7236 69.5303 34.8196 69.0096 34.8196H66.6495Z" fill="white"/>
<path d="M78.2612 37.9716H85.0604C85.2401 37.9716 85.4359 37.9684 85.6478 37.962C85.8597 37.9559 86.0812 37.9273 86.3124 37.8767C86.5436 37.826 86.7713 37.7503 86.9962 37.649C87.2209 37.5479 87.4295 37.4024 87.622 37.2128C87.8275 37.0104 87.9945 36.7764 88.1228 36.5108C88.2511 36.2452 88.3443 35.9669 88.4022 35.676C88.4599 35.3851 88.4985 35.0849 88.5178 34.7751C88.537 34.4653 88.5465 34.1584 88.5465 33.855C88.5465 33.3996 88.5145 32.9381 88.4504 32.4701C88.386 32.0022 88.187 31.5594 87.8532 31.1421C87.5194 30.7248 87.1567 30.4529 86.765 30.3263C86.3733 30.1999 85.9721 30.1367 85.5612 30.1367H81.8437C81.7024 30.1367 81.5418 30.1209 81.3621 30.0892C81.1823 30.0575 81.0411 29.9911 80.9385 29.8901C80.8358 29.7762 80.7747 29.6371 80.7555 29.4726C80.7362 29.3083 80.7265 29.1566 80.7265 29.0174V27.3668C80.7265 27.2911 80.7297 27.2025 80.7362 27.1012C80.7427 27.0002 80.7779 26.918 80.8421 26.8546C80.8935 26.7914 80.9674 26.7472 81.0635 26.7218C81.1599 26.6965 81.2595 26.684 81.3621 26.684H88.1036V24.692H79.9753C79.9112 24.692 79.8245 24.6952 79.7154 24.7014C79.6063 24.7078 79.4875 24.7267 79.3589 24.7584C79.2306 24.7901 79.1023 24.8374 78.9737 24.9008C78.8454 24.964 78.7233 25.0525 78.6077 25.1664C78.5051 25.2674 78.4087 25.4162 78.3189 25.6122C78.229 25.8081 78.1841 26.0705 78.1841 26.3995V29.7573C78.1841 29.8711 78.1906 30.0133 78.2033 30.1841C78.2163 30.3548 78.245 30.535 78.2899 30.7248C78.3348 30.9144 78.4087 31.1011 78.5116 31.2845C78.6142 31.4677 78.762 31.6226 78.9545 31.7492C79.0831 31.8503 79.2338 31.9263 79.4071 31.9769C79.5806 32.0273 79.7539 32.0622 79.9271 32.0812C80.1006 32.1001 80.2706 32.1129 80.4376 32.119C80.6046 32.1254 80.7522 32.1286 80.8808 32.1286H84.4632C84.8227 32.1286 85.0924 32.1854 85.2721 32.2993C85.4521 32.4131 85.5739 32.5206 85.6381 32.6219C85.7666 32.7989 85.8468 33.0202 85.879 33.2858C85.9109 33.5513 85.9272 33.7726 85.9272 33.9499C85.9272 34.2027 85.9047 34.4714 85.8598 34.7561C85.8148 35.0406 85.7409 35.2587 85.6381 35.4105C85.4583 35.676 85.2336 35.8373 84.964 35.8944C84.6944 35.9512 84.4632 35.9797 84.2705 35.9797H78.2612V37.9716ZM90.704 37.9716H96.7712C96.9766 37.9716 97.2205 37.962 97.5031 37.9431C97.7857 37.9241 98.0746 37.8641 98.3699 37.7628C98.6652 37.6618 98.9541 37.5005 99.2367 37.2792C99.519 37.0579 99.7632 36.7449 99.9686 36.3401C100.174 35.9354 100.302 35.499 100.354 35.0311C100.405 34.5631 100.431 34.0888 100.431 33.6084V28.2586C100.431 27.9296 100.396 27.5598 100.325 27.1487C100.254 26.7378 100.09 26.3488 99.8338 25.982C99.6284 25.6785 99.3907 25.4413 99.1211 25.2706C98.8515 25.1 98.5689 24.9733 98.2735 24.8912C97.9782 24.8091 97.6796 24.7552 97.378 24.7299C97.0762 24.7046 96.7969 24.692 96.54 24.692H93.8243C93.4004 24.692 92.9416 24.7363 92.447 24.8248C91.9527 24.9133 91.5066 25.1346 91.1084 25.4887C90.8645 25.7164 90.675 25.9694 90.5402 26.2475C90.4054 26.5259 90.3027 26.8136 90.2321 27.1108C90.1614 27.4081 90.1197 27.699 90.1068 27.9835C90.094 28.268 90.0875 28.5242 90.0875 28.7519C90.0875 29.3083 90.126 29.8522 90.2031 30.3833C90.2803 30.9144 90.505 31.3951 90.8772 31.825C91.0699 32.0526 91.2786 32.2329 91.5033 32.3657C91.728 32.4984 91.9494 32.5965 92.1679 32.6597C92.3861 32.7229 92.5883 32.7642 92.7745 32.7832C92.9607 32.8021 93.1116 32.8114 93.2272 32.8114H97.8884V33.9307C97.8884 34.1459 97.8659 34.4146 97.8209 34.737C97.776 35.0596 97.6444 35.3283 97.426 35.5432C97.2078 35.7584 96.9574 35.8848 96.6748 35.9226C96.3924 35.9607 96.1421 35.9797 95.9236 35.9797H90.704V37.9716ZM97.8884 30.8195H94.768C94.6781 30.8195 94.5657 30.8163 94.4309 30.8102C94.2961 30.8038 94.1548 30.7848 94.0073 30.7531C93.8595 30.7217 93.7152 30.6806 93.5739 30.6299C93.4326 30.5793 93.3105 30.5097 93.2079 30.4212C93.0282 30.2441 92.8996 30.0039 92.8227 29.7003C92.7456 29.3968 92.7071 29.0996 92.7071 28.8087C92.7071 28.3407 92.7618 27.9771 92.8709 27.7179C92.98 27.4585 93.1051 27.2657 93.2464 27.1393C93.3749 27.0127 93.5449 26.9053 93.7569 26.8167C93.9686 26.7282 94.2479 26.684 94.5947 26.684H96.1548C96.4888 26.684 96.7617 26.7314 96.9734 26.8263C97.1853 26.921 97.3491 27.0255 97.4647 27.1393C97.6701 27.3417 97.792 27.5724 97.8307 27.8318C97.8691 28.0909 97.8884 28.2965 97.8884 28.4482V30.8195Z" fill="white"/>
<path d="M22.5138 10.5292H29.8307C30.2761 10.5292 30.7693 10.4822 31.3102 10.3882C31.851 10.2942 32.3868 10.0174 32.917 9.55774C33.5533 9.01453 33.951 8.38783 34.1102 7.67761C34.2691 6.96718 34.3488 6.24646 34.3488 5.51526C34.3488 5.20202 34.3381 4.84681 34.3168 4.44984C34.2957 4.05287 34.2373 3.64563 34.1419 3.22767C34.0465 2.80994 33.898 2.40772 33.6965 2.02125C33.4949 1.63477 33.2246 1.29529 32.8851 1.00281C32.3972 0.585079 31.883 0.344848 31.3421 0.282108C30.8012 0.219369 30.2974 0.18811 29.8307 0.18811H21.7814C21.3783 0.18811 20.9647 0.224615 20.5405 0.297849C20.1162 0.370855 19.7557 0.553604 19.4588 0.846084C19.1618 1.13856 18.9761 1.49378 18.902 1.91174C18.8276 2.32947 18.7905 2.68469 18.7905 2.97717V11.5946L18.7912 11.6535V16.7965H22.5138V10.5292ZM22.5131 7.70887V3.88586C22.5131 3.76038 22.5236 3.64039 22.5449 3.5254C22.5662 3.41065 22.6403 3.30091 22.7677 3.19642C22.8949 3.09193 23.038 3.03443 23.1972 3.02416C23.3563 3.01367 23.4888 3.00842 23.5949 3.00842H28.781C29.0142 3.00842 29.2421 3.06067 29.465 3.16516C29.6876 3.26965 29.8627 3.3844 29.9899 3.50988C30.2231 3.73962 30.3665 4.0426 30.4193 4.41858C30.4723 4.79456 30.499 5.10803 30.499 5.35876C30.499 5.96448 30.4459 6.39271 30.3398 6.64344C30.2338 6.89417 30.149 7.0614 30.0853 7.1449C29.8733 7.41639 29.6241 7.57837 29.3376 7.63062C29.0513 7.68286 28.8444 7.70887 28.7173 7.70887H22.5131Z" fill="#2B7AF1"/>
</svg>
