<svg width="17" height="18" viewBox="0 0 17 18" fill="none" xmlns="http://www.w3.org/2000/svg">
<path d="M14.5808 0.354492H2.41923C1.04615 0.354492 0 1.40065 0 2.77372V14.9353C0 16.3083 1.04615 17.3545 2.41923 17.3545H14.5808C15.9538 17.3545 17 16.3083 17 14.9353V2.77372C17 1.40065 15.9538 0.354492 14.5808 0.354492ZM8.5 13.9545C11.3115 13.9545 13.6 11.7314 13.6 9.05065C13.6 8.59295 13.5346 8.06988 13.4038 7.67757H14.8423V14.6083C14.8423 14.9353 14.5808 15.2622 14.1885 15.2622H2.81154C2.48462 15.2622 2.15769 15.0006 2.15769 14.6083V7.61218H3.66154C3.53077 8.06988 3.46539 8.52757 3.46539 8.98526C3.4 11.7314 5.68846 13.9545 8.5 13.9545ZM8.5 11.993C6.66923 11.993 5.23077 10.5545 5.23077 8.78911C5.23077 7.02372 6.66923 5.58526 8.5 5.58526C10.3308 5.58526 11.7692 7.02372 11.7692 8.78911C11.7692 10.6199 10.3308 11.993 8.5 11.993ZM14.7769 4.9968C14.7769 5.38911 14.45 5.71603 14.0577 5.71603H12.2269C11.8346 5.71603 11.5077 5.38911 11.5077 4.9968V3.23142C11.5077 2.83911 11.8346 2.51218 12.2269 2.51218H14.0577C14.45 2.51218 14.7769 2.83911 14.7769 3.23142V4.9968Z" fill="white"/>
</svg>
