<svg width="87" height="35" viewBox="0 0 87 35" fill="none" xmlns="http://www.w3.org/2000/svg">
<path d="M75.2489 0.156738V2.50694H82.0645C82.3083 2.50694 82.5649 2.54173 82.8349 2.61131C83.1046 2.68109 83.344 2.84629 83.5529 3.10751C83.7271 3.31644 83.8358 3.53394 83.8793 3.76037C83.9229 3.9866 83.9446 4.20428 83.9446 4.41322V5.37938H77.9387C77.5731 5.37938 77.1683 5.41854 76.7244 5.49687C76.2805 5.5752 75.8407 5.8058 75.4056 6.18889C74.8833 6.64155 74.5569 7.1638 74.4263 7.75562C74.2959 8.34764 74.2305 8.94821 74.2305 9.55753C74.2305 9.81855 74.2392 10.1146 74.2567 10.4454C74.274 10.7762 74.3219 11.1155 74.4002 11.4638C74.4786 11.8119 74.6004 12.1471 74.7658 12.4691C74.9312 12.7912 75.1531 13.0741 75.4318 13.3178C75.8322 13.6659 76.2543 13.8661 76.6982 13.9184C77.1421 13.9707 77.5556 13.9967 77.9387 13.9967H84.5452C84.876 13.9967 85.2155 13.9663 85.5636 13.9053C85.9119 13.8444 86.2077 13.6921 86.4514 13.4484C86.6951 13.2047 86.8476 12.9087 86.9084 12.5604C86.9695 12.2123 86.9999 11.9163 86.9999 11.6726V4.49155C86.9999 3.70808 86.9041 3.0423 86.7126 2.49382C86.5212 1.94553 86.2775 1.52328 85.9814 1.22727C85.6681 0.896666 85.259 0.635454 84.7541 0.444008C84.2493 0.252373 83.7008 0.156738 83.109 0.156738H75.2489ZM83.9446 7.72958V10.9153C83.9446 11.0199 83.936 11.1199 83.9185 11.2157C83.901 11.3113 83.8402 11.4028 83.7356 11.4899C83.6313 11.5769 83.5138 11.6248 83.3832 11.6334C83.2525 11.6421 83.1438 11.6465 83.0567 11.6465H78.8002C78.6088 11.6465 78.4217 11.603 78.2388 11.5159C78.0561 11.4288 77.9124 11.3332 77.808 11.2286C77.6166 11.0372 77.4989 10.7847 77.4556 10.4714C77.412 10.1581 77.3902 9.89689 77.3902 9.68795C77.3902 9.1832 77.4337 8.82635 77.5208 8.61741C77.6079 8.40848 77.6774 8.26912 77.7297 8.19954C77.9037 7.97331 78.1082 7.83832 78.3434 7.79479C78.5784 7.75125 78.7481 7.72958 78.8525 7.72958H83.9446Z" fill="#2B7AF1"/>
<path d="M59.4766 11.6464H58.2231V13.9966H73.8127V11.6464H72.5856L68.2508 1.3578C68.1114 1.0097 67.8895 0.696385 67.5848 0.417677C67.2802 0.139159 66.7624 0 66.0312 0C65.3173 0 64.8038 0.13042 64.4905 0.391638C64.177 0.652855 63.942 0.974906 63.7853 1.3578L59.4766 11.6464ZM65.7439 3.05514C65.7787 2.96806 65.8222 2.88537 65.8743 2.80704C65.9266 2.72871 65.9789 2.68955 66.0312 2.68955C66.1181 2.68955 66.1747 2.73308 66.2008 2.82016C66.227 2.90723 66.2574 2.98555 66.2922 3.05514L69.6086 11.6464H62.4536L65.7439 3.05514Z" fill="#2B7AF1"/>
<path d="M57.4398 13.9967V0.156738H54.3846V5.69268H47.778V0.156738H44.7227V13.9967H47.778V8.04288H54.3846V13.9967H57.4398Z" fill="#2B7AF1"/>
<path d="M42.5553 13.9965V11.6463H35.792C35.5135 11.6463 35.2306 11.6288 34.9433 11.594C34.6561 11.5592 34.3817 11.4853 34.1207 11.3722C33.8595 11.259 33.6332 11.0936 33.4418 10.876C33.2501 10.6583 33.1022 10.3668 32.9979 10.0012C32.9456 9.7923 32.9021 9.4963 32.8673 9.11341C32.8325 8.73033 32.815 8.39077 32.815 8.09496H40.858C41.1365 8.09496 41.4019 8.06017 41.6544 7.99039C41.9068 7.92081 42.1375 7.78165 42.3464 7.57272C42.6422 7.27671 42.8251 6.94153 42.8947 6.56738C42.9643 6.19305 42.9992 5.83183 42.9992 5.48354C42.9992 5.04837 42.973 4.61757 42.9209 4.19095C42.8686 3.76452 42.7684 3.3554 42.6205 2.96377C42.4726 2.57194 42.2724 2.21073 42.02 1.87993C41.7675 1.54913 41.4411 1.2533 41.0407 0.992087C40.3966 0.591706 39.6785 0.343603 38.8863 0.247976C38.0943 0.152158 37.2891 0.104248 36.4709 0.104248C36.1401 0.104248 35.7572 0.112996 35.3218 0.130296C34.8867 0.147787 34.434 0.195697 33.964 0.274024C33.4939 0.352351 33.0283 0.478586 32.5669 0.652731C32.1057 0.826685 31.6834 1.07916 31.3005 1.40996C30.9175 1.74076 30.6171 2.10635 30.3996 2.50673C30.1819 2.90711 30.0165 3.34665 29.9034 3.82536C29.7903 4.30407 29.7207 4.82651 29.6944 5.39229C29.6684 5.95807 29.6553 6.56302 29.6553 7.20713C29.6553 8.12975 29.7076 9.03507 29.8119 9.92291C29.9165 10.8107 30.195 11.5855 30.6477 12.2469C30.9262 12.6473 31.2395 12.9649 31.5876 13.2001C31.9359 13.4351 32.2928 13.6134 32.6583 13.7353C33.0239 13.8571 33.3982 13.9313 33.7811 13.9573C34.1642 13.9834 34.5298 13.9965 34.8779 13.9965H42.5553ZM32.815 5.74476C32.8325 5.29209 32.8629 4.86986 32.9064 4.47822C32.95 4.08659 33.1283 3.71662 33.4418 3.36852C33.6507 3.14209 33.8813 2.96376 34.1338 2.83315C34.3861 2.70255 34.6429 2.6111 34.9041 2.55901C35.1652 2.50673 35.4176 2.47631 35.6614 2.46756C35.9051 2.45882 36.1314 2.45445 36.3403 2.45445C36.7755 2.45445 37.2238 2.48487 37.6852 2.54589C38.1464 2.60673 38.5686 2.78525 38.9517 3.08126C39.1779 3.25521 39.3825 3.49894 39.5652 3.81244C39.7481 4.12575 39.8396 4.50008 39.8396 4.93526C39.8396 5.1267 39.8004 5.30959 39.722 5.48354C39.6437 5.65769 39.4565 5.74476 39.1604 5.74476H32.815Z" fill="#2B7AF1"/>
<path d="M1.58388 0.156738V2.50694H8.39949C8.64322 2.50694 8.89986 2.54173 9.16982 2.61131C9.4396 2.68109 9.67894 2.84629 9.88788 3.10751C10.062 3.31644 10.1708 3.53394 10.2143 3.76037C10.2578 3.9866 10.2795 4.20428 10.2795 4.41322V5.37938H4.27359C3.908 5.37938 3.50326 5.41854 3.05935 5.49687C2.61543 5.5752 2.17567 5.8058 1.7405 6.18889C1.21826 6.64155 0.891834 7.1638 0.761225 7.75562C0.630807 8.34764 0.56543 8.94821 0.56543 9.55753C0.56543 9.81855 0.574154 10.1146 0.591645 10.4454C0.608945 10.7762 0.656869 11.1155 0.735196 11.4638C0.813523 11.8119 0.935396 12.1471 1.1008 12.4691C1.2662 12.7912 1.48805 13.0741 1.76675 13.3178C2.16714 13.6659 2.58918 13.8661 3.0331 13.9184C3.47701 13.9707 3.89051 13.9967 4.27359 13.9967H10.8801C11.2109 13.9967 11.5504 13.9663 11.8985 13.9053C12.2468 13.8444 12.5427 13.6921 12.7864 13.4484C13.0301 13.2047 13.1826 12.9087 13.2434 12.5604C13.3044 12.2123 13.3349 11.9163 13.3349 11.6726V4.49155C13.3349 3.70808 13.239 3.0423 13.0476 2.49382C12.8561 1.94553 12.6124 1.52328 12.3164 1.22727C12.0031 0.896666 11.594 0.635454 11.089 0.444008C10.5843 0.252373 10.0358 0.156738 9.44397 0.156738H1.58388ZM10.2795 7.72958V10.9153C10.2795 11.0199 10.271 11.1199 10.2535 11.2157C10.236 11.3113 10.1751 11.4028 10.0706 11.4899C9.96619 11.5769 9.84872 11.6248 9.71811 11.6334C9.5875 11.6421 9.47876 11.6465 9.39169 11.6465H5.1352C4.94375 11.6465 4.75669 11.603 4.5738 11.5159C4.3911 11.4288 4.24737 11.3332 4.143 11.2286C3.95156 11.0372 3.83385 10.7847 3.79051 10.4714C3.74697 10.1581 3.72512 9.89689 3.72512 9.68795C3.72512 9.1832 3.76868 8.82635 3.85575 8.61741C3.94282 8.40848 4.01237 8.26912 4.06465 8.19954C4.23861 7.97331 4.44319 7.83832 4.67837 7.79479C4.91335 7.75125 5.08311 7.72958 5.18748 7.72958H10.2795Z" fill="#2B7AF1"/>
<path fill-rule="evenodd" clip-rule="evenodd" d="M3.80229 17.4941H83.093C85.1843 17.4941 86.8953 19.2052 86.8953 21.2964V30.7942C86.8953 32.8854 85.1843 34.5965 83.093 34.5965H3.80229C1.71103 34.5965 0 32.8854 0 30.7942V21.2964C0 19.2052 1.71103 17.4941 3.80229 17.4941Z" fill="#FF7D03"/>
<path d="M12.3761 30.3264L9.08441 26.8891C9.02605 26.8308 8.9654 26.7458 8.90228 26.6342C8.83916 26.5224 8.80759 26.4279 8.80759 26.3502C8.80759 26.2239 8.85133 26.1049 8.9386 25.9933C9.02605 25.8817 9.1038 25.7918 9.17167 25.7239L12.0993 22.607H10.0747L7.61329 25.3452C7.50644 25.4714 7.38993 25.6218 7.26369 25.7967C7.13746 25.9714 7.07432 26.1559 7.07432 26.3502C7.07432 26.5443 7.12529 26.7192 7.22738 26.8745C7.32928 27.0298 7.42395 27.1561 7.5114 27.2532L10.3224 30.3264H12.3761ZM6.73936 30.3264V22.607H5.03516V30.3264H6.73936ZM18.2896 26.3211C18.4837 26.3017 18.6586 26.2505 18.8139 26.168C18.9692 26.0855 19.1004 25.9861 19.2071 25.8695C19.3626 25.6946 19.4595 25.4884 19.4985 25.2505C19.5373 25.0125 19.5567 24.7916 19.5567 24.5878C19.5567 24.4032 19.5373 24.1751 19.4985 23.9032C19.4595 23.6313 19.343 23.3838 19.1489 23.1604C19.0324 23.0245 18.8989 22.9201 18.7483 22.8473C18.5978 22.7745 18.4449 22.7186 18.2896 22.6798C18.1342 22.6408 17.9787 22.619 17.8234 22.6142C17.6681 22.6093 17.5272 22.607 17.4011 22.607H13.9055C13.7403 22.607 13.5681 22.6239 13.3884 22.6579C13.2088 22.692 13.0363 22.7768 12.8713 22.9127C12.7063 23.0488 12.6067 23.1992 12.5728 23.3642C12.5388 23.5294 12.5217 23.6798 12.5217 23.8157V29.1903C12.5217 29.3165 12.5363 29.4621 12.5654 29.6273C12.5947 29.7924 12.6772 29.9331 12.8131 30.0496C12.949 30.1758 13.1116 30.2536 13.3009 30.2827C13.4903 30.3118 13.6675 30.3264 13.8327 30.3264H17.5031C17.7265 30.3264 17.9837 30.3045 18.2749 30.2608C18.5662 30.2171 18.8283 30.0789 19.0614 29.8458C19.1877 29.7196 19.2848 29.5787 19.3529 29.4234C19.4207 29.268 19.4717 29.1127 19.5057 28.9572C19.5398 28.8019 19.5616 28.6538 19.5713 28.5131C19.581 28.3722 19.5858 28.2484 19.5858 28.1416C19.5858 27.9378 19.5688 27.7216 19.5348 27.4935C19.5008 27.2654 19.4061 27.0542 19.2508 26.8599C19.1635 26.7532 19.0373 26.6486 18.8721 26.5467C18.7071 26.4448 18.5129 26.3792 18.2896 26.3502V26.3211ZM14.2259 25.6802V24.2965C14.2259 24.2479 14.2308 24.1994 14.2405 24.1509C14.2502 24.1022 14.2793 24.0538 14.3278 24.0051C14.3764 23.9566 14.4299 23.93 14.488 23.9251C14.5464 23.9201 14.5996 23.9178 14.6483 23.9178H16.8913C17.0078 23.9178 17.1243 23.9275 17.2409 23.9469C17.3574 23.9663 17.4641 24.0197 17.5612 24.1072C17.6681 24.2041 17.7337 24.3159 17.7578 24.4422C17.7822 24.5684 17.7943 24.6897 17.7943 24.8062C17.7943 24.9131 17.7822 25.0222 17.7578 25.134C17.7337 25.2456 17.673 25.35 17.5759 25.4471C17.469 25.554 17.35 25.6195 17.219 25.6437C17.0878 25.668 16.969 25.6802 16.8622 25.6802H14.2259ZM14.2259 26.991H16.8913C16.9884 26.991 17.1073 27.0032 17.2481 27.0273C17.389 27.0517 17.5127 27.122 17.6196 27.2386C17.7166 27.3454 17.7749 27.4644 17.7943 27.5954C17.8137 27.7266 17.8234 27.8504 17.8234 27.9669C17.8234 28.0931 17.8112 28.2338 17.7871 28.3893C17.7628 28.5446 17.6972 28.6756 17.5903 28.7825C17.4837 28.8893 17.3574 28.9549 17.2118 28.9791C17.066 29.0034 16.93 29.0156 16.8038 29.0156H14.6774C14.6095 29.0156 14.5439 29.0106 14.4808 29.0009C14.4177 28.9912 14.3618 28.9572 14.3133 28.899C14.2842 28.8505 14.2624 28.7946 14.2477 28.7315C14.2331 28.6684 14.2259 28.6078 14.2259 28.5494V26.991ZM20.9112 22.607V23.9178H24.7128C24.8487 23.9178 24.9919 23.9372 25.1425 23.976C25.2928 24.0148 25.4265 24.1072 25.5428 24.2528C25.64 24.3693 25.7006 24.4906 25.7249 24.6169C25.7493 24.7431 25.7614 24.8644 25.7614 24.9809V25.5199H22.4114C22.2075 25.5199 21.9818 25.5418 21.7341 25.5855C21.4865 25.6292 21.2413 25.7578 20.9985 25.9714C20.7073 26.2239 20.5253 26.5152 20.4525 26.8454C20.3795 27.1754 20.3432 27.5104 20.3432 27.8504C20.3432 27.996 20.348 28.161 20.3578 28.3456C20.3675 28.53 20.3941 28.7194 20.4379 28.9137C20.4816 29.1078 20.5495 29.2947 20.6417 29.4743C20.7341 29.654 20.8578 29.8118 21.0131 29.9477C21.2365 30.142 21.4719 30.2536 21.7196 30.2827C21.9671 30.3118 22.1978 30.3264 22.4114 30.3264H26.0964C26.2809 30.3264 26.4702 30.3095 26.6645 30.2754C26.8586 30.2414 27.0236 30.1564 27.1596 30.0205C27.2955 29.8846 27.3805 29.7196 27.4145 29.5253C27.4485 29.3311 27.4655 29.1661 27.4655 29.0302V25.0247C27.4655 24.5878 27.412 24.2163 27.3052 23.9104C27.1985 23.6047 27.0626 23.3692 26.8974 23.2041C26.7227 23.0195 26.4945 22.8739 26.213 22.7671C25.9312 22.6604 25.6255 22.607 25.2953 22.607H20.9112ZM25.7614 26.8308V28.6078C25.7614 28.6659 25.7565 28.7218 25.7468 28.7753C25.7371 28.8287 25.7031 28.8796 25.6449 28.9281C25.5866 28.9768 25.521 29.0034 25.4482 29.0083C25.3753 29.0131 25.3147 29.0156 25.2662 29.0156H22.892C22.7852 29.0156 22.6808 28.9912 22.5789 28.9428C22.477 28.8941 22.3968 28.8408 22.3386 28.7825C22.2318 28.6756 22.1662 28.5349 22.1419 28.36C22.1177 28.1853 22.1056 28.0397 22.1056 27.9232C22.1056 27.6416 22.1299 27.4426 22.1784 27.326C22.2269 27.2095 22.2658 27.1317 22.2949 27.0929C22.392 26.9667 22.5061 26.8914 22.6371 26.8673C22.7683 26.8429 22.863 26.8308 22.9212 26.8308H25.7614ZM30.3348 30.3264H32.4906C32.6847 30.3264 32.9008 30.3192 33.1387 30.3045C33.3765 30.2899 33.6193 30.2464 33.8668 30.1735C34.1145 30.1007 34.3524 29.9889 34.5805 29.8384C34.8088 29.688 35.0151 29.4817 35.1995 29.2194C35.3356 29.0253 35.4448 28.8116 35.5273 28.5787C35.6098 28.3456 35.6729 28.1028 35.7166 27.8504C35.7603 27.5979 35.7872 27.3407 35.7969 27.0785C35.8065 26.8163 35.8113 26.5589 35.8113 26.3064C35.8113 26.0927 35.8065 25.8621 35.7969 25.6146C35.7872 25.3671 35.7556 25.1169 35.7022 24.8644C35.6487 24.6121 35.5662 24.3644 35.4545 24.1216C35.3429 23.8789 35.1898 23.6557 34.9957 23.4517C34.8113 23.2576 34.612 23.1045 34.3985 22.9929C34.1849 22.8811 33.9736 22.7963 33.7649 22.738C33.5561 22.6798 33.362 22.6433 33.1824 22.6288C33.0027 22.6142 32.8497 22.607 32.7235 22.607H30.029C29.8833 22.607 29.7231 22.6214 29.5484 22.6505C29.3736 22.6798 29.2134 22.7477 29.0677 22.8545C28.9706 22.9323 28.8734 23.0463 28.7765 23.1967C28.6793 23.3473 28.6306 23.5488 28.6306 23.8013V32.8025H30.3348V30.3264ZM30.3348 29.0156V24.2819C30.3348 24.1847 30.3736 24.0975 30.4514 24.0197C30.4805 24.0003 30.517 23.9785 30.5607 23.9541C30.6043 23.93 30.6455 23.9178 30.6845 23.9178H32.3594C32.7381 23.9178 33.0537 24.0003 33.3062 24.1654C33.5586 24.3304 33.7383 24.5391 33.8451 24.7916C33.8936 24.8984 33.9398 25.0709 33.9833 25.3087C34.0271 25.5465 34.0489 25.9277 34.0489 26.4521C34.0489 27.0251 34.0149 27.4473 33.947 27.7192C33.879 27.9912 33.8061 28.1853 33.7286 28.3019C33.6314 28.4572 33.4712 28.615 33.2478 28.7753C33.0246 28.9355 32.6993 29.0156 32.2719 29.0156H30.3348ZM40.7925 30.3264V23.9178H43.691V22.607H36.19V23.9178H39.0885V30.3264H40.7925ZM51.8328 30.3264V23.6994C51.8328 23.4079 51.7844 23.1847 51.6872 23.0292C51.5901 22.8739 51.4809 22.7574 51.3594 22.6798C51.2382 22.602 51.1144 22.5559 50.9881 22.5414C50.8619 22.5268 50.7695 22.5195 50.7113 22.5195C50.5366 22.5195 50.357 22.5511 50.1724 22.6142C49.988 22.6773 49.818 22.8205 49.6627 23.0439L46.2252 28.0979C46.1961 28.1465 46.167 28.1926 46.1379 28.2363C46.1088 28.28 46.0699 28.3019 46.0214 28.3019C45.963 28.3019 45.9292 28.285 45.9195 28.2509C45.9098 28.2169 45.9049 28.1659 45.9049 28.0979L45.9777 22.607H44.2735V29.3215C44.2735 29.4283 44.2856 29.5446 44.31 29.6709C44.3343 29.7971 44.3853 29.9137 44.4628 30.0205C44.5406 30.1274 44.6522 30.2196 44.798 30.2973C44.9436 30.3749 45.1427 30.4139 45.3952 30.4139C45.6864 30.4139 45.9098 30.3629 46.0651 30.2608C46.2204 30.1589 46.3661 30.0061 46.502 29.8021L49.8957 24.8353C49.9539 24.7481 49.9977 24.6922 50.0267 24.6678C50.0558 24.6437 50.0802 24.6315 50.0996 24.6315C50.1579 24.6315 50.187 24.6509 50.187 24.6897C50.187 24.7285 50.187 24.7771 50.187 24.8353L50.1288 30.3264H51.8328ZM54.7022 30.3264H56.8579C57.052 30.3264 57.2682 30.3192 57.5061 30.3045C57.7439 30.2899 57.9866 30.2464 58.2342 30.1735C58.4819 30.1007 58.7197 29.9889 58.9479 29.8384C59.1762 29.688 59.3825 29.4817 59.5669 29.2194C59.703 29.0253 59.8121 28.8116 59.8946 28.5787C59.9771 28.3456 60.0403 28.1028 60.084 27.8504C60.1277 27.5979 60.1545 27.3407 60.1642 27.0785C60.1739 26.8163 60.1786 26.5589 60.1786 26.3064C60.1786 26.0927 60.1739 25.8621 60.1642 25.6146C60.1545 25.3671 60.123 25.1169 60.0696 24.8644C60.0161 24.6121 59.9336 24.3644 59.8218 24.1216C59.7102 23.8789 59.5572 23.6557 59.3631 23.4517C59.1787 23.2576 58.9794 23.1045 58.7659 22.9929C58.5522 22.8811 58.341 22.7963 58.1323 22.738C57.9235 22.6798 57.7294 22.6433 57.5498 22.6288C57.3701 22.6142 57.217 22.607 57.0908 22.607H54.3963C54.2507 22.607 54.0904 22.6214 53.9157 22.6505C53.741 22.6798 53.5807 22.7477 53.4351 22.8545C53.338 22.9323 53.2408 23.0463 53.1438 23.1967C53.0467 23.3473 52.998 23.5488 52.998 23.8013V32.8025H54.7022V30.3264ZM54.7022 29.0156V24.2819C54.7022 24.1847 54.741 24.0975 54.8187 24.0197C54.8478 24.0003 54.8843 23.9785 54.9281 23.9541C54.9716 23.93 55.0129 23.9178 55.0518 23.9178H56.7268C57.1055 23.9178 57.421 24.0003 57.6735 24.1654C57.926 24.3304 58.1056 24.5391 58.2125 24.7916C58.261 24.8984 58.3072 25.0709 58.3507 25.3087C58.3944 25.5465 58.4163 25.9277 58.4163 26.4521C58.4163 27.0251 58.3823 27.4473 58.3144 27.7192C58.2463 27.9912 58.1735 28.1853 58.096 28.3019C57.9988 28.4572 57.8385 28.615 57.6151 28.7753C57.3919 28.9355 57.0667 29.0156 56.6393 29.0156H54.7022Z" fill="white"/>
<path d="M64.2332 31.6422H69.8137C69.9612 31.6422 70.1218 31.6395 70.2958 31.6342C70.4697 31.6291 70.6515 31.6053 70.8412 31.5631C71.031 31.5209 71.2178 31.4578 71.4024 31.3733C71.5869 31.2891 71.7581 31.1678 71.9161 31.0099C72.0848 30.8412 72.2218 30.6462 72.3271 30.4249C72.4325 30.2036 72.5089 29.9716 72.5564 29.7292C72.6038 29.4868 72.6355 29.2367 72.6513 28.9785C72.6671 28.7203 72.6749 28.4646 72.6749 28.2117C72.6749 27.8323 72.6486 27.4477 72.596 27.0577C72.5431 26.6678 72.3798 26.2988 72.1059 25.9511C71.8319 25.6034 71.5342 25.3768 71.2127 25.2712C70.8912 25.1659 70.5619 25.1133 70.2247 25.1133H67.1735C67.0576 25.1133 66.9258 25.1001 66.7783 25.0737C66.6308 25.0473 66.5148 24.992 66.4306 24.9077C66.3464 24.8129 66.2962 24.6969 66.2804 24.5598C66.2646 24.423 66.2566 24.2965 66.2566 24.1806V22.8051C66.2566 22.742 66.2593 22.6682 66.2646 22.5838C66.2699 22.4996 66.2988 22.4311 66.3515 22.3783C66.3937 22.3256 66.4543 22.2887 66.5332 22.2676C66.6123 22.2465 66.6941 22.2361 66.7783 22.2361H72.3114V20.5762H65.6401C65.5874 20.5762 65.5163 20.5788 65.4268 20.584C65.3372 20.5893 65.2397 20.6051 65.1342 20.6315C65.0288 20.6579 64.9235 20.6973 64.818 20.7501C64.7127 20.8028 64.6125 20.8766 64.5176 20.9714C64.4334 21.0556 64.3543 21.1796 64.2805 21.3429C64.2068 21.5062 64.1699 21.7248 64.1699 21.999V24.7971C64.1699 24.892 64.1752 25.0104 64.1857 25.1528C64.1963 25.295 64.2199 25.4452 64.2568 25.6034C64.2937 25.7614 64.3543 25.9169 64.4387 26.0697C64.5229 26.2224 64.6443 26.3515 64.8022 26.457C64.9078 26.5412 65.0315 26.6045 65.1737 26.6467C65.3161 26.6887 65.4583 26.7178 65.6005 26.7336C65.7429 26.7494 65.8825 26.76 66.0195 26.7652C66.1566 26.7705 66.2777 26.7731 66.3832 26.7731H69.3236C69.6186 26.7731 69.8399 26.8205 69.9874 26.9154C70.1351 27.0102 70.2351 27.0998 70.2878 27.1842C70.3933 27.3317 70.4591 27.5161 70.4855 27.7374C70.5118 27.9587 70.5251 28.1431 70.5251 28.2908C70.5251 28.5015 70.5066 28.7254 70.4697 28.9627C70.4329 29.1998 70.3722 29.3815 70.2878 29.5079C70.1403 29.7292 69.9559 29.8637 69.7346 29.9112C69.5133 29.9585 69.3235 29.9823 69.1654 29.9823H64.2332V31.6422ZM74.4456 31.6422H79.4253C79.5939 31.6422 79.7941 31.6342 80.026 31.6184C80.258 31.6026 80.4951 31.5526 80.7374 31.4682C80.9798 31.384 81.2169 31.2496 81.4489 31.0652C81.6806 30.8808 81.881 30.6199 82.0496 30.2827C82.2182 29.9454 82.3236 29.5817 82.3658 29.1918C82.4078 28.8019 82.4289 28.4066 82.4289 28.0062V23.5482C82.4289 23.2741 82.4 22.9659 82.342 22.6233C82.284 22.2809 82.1496 21.9568 81.939 21.6511C81.7703 21.3982 81.5753 21.2005 81.354 21.0583C81.1327 20.9161 80.9008 20.8106 80.6584 20.7421C80.416 20.6737 80.1709 20.6288 79.9234 20.6077C79.6757 20.5866 79.4464 20.5762 79.2355 20.5762H77.0066C76.6587 20.5762 76.2821 20.6131 75.8762 20.6868C75.4705 20.7606 75.1043 20.945 74.7775 21.2401C74.5773 21.4298 74.4218 21.6406 74.3112 21.8724C74.2006 22.1043 74.1163 22.344 74.0583 22.5918C74.0003 22.8395 73.9661 23.0819 73.9555 23.319C73.945 23.556 73.9397 23.7695 73.9397 23.9593C73.9397 24.4229 73.9713 24.8762 74.0346 25.3188C74.0979 25.7614 74.2823 26.1619 74.5878 26.5201C74.746 26.7098 74.9173 26.86 75.1017 26.9707C75.2861 27.0813 75.4678 27.1631 75.6471 27.2157C75.8262 27.2684 75.9922 27.3028 76.145 27.3186C76.2979 27.3344 76.4217 27.3422 76.5165 27.3422H80.3422V28.2749C80.3422 28.4541 80.3238 28.6781 80.2869 28.9467C80.25 29.2156 80.142 29.4395 79.9627 29.6186C79.7836 29.7979 79.5781 29.9032 79.3462 29.9347C79.1144 29.9665 78.9089 29.9823 78.7297 29.9823H74.4456V31.6422ZM80.3422 25.6823H77.7812C77.7074 25.6823 77.6152 25.6796 77.5045 25.6745C77.3939 25.6692 77.2779 25.6534 77.1568 25.6269C77.0355 25.6007 76.9171 25.5665 76.8011 25.5243C76.6851 25.4821 76.585 25.4241 76.5007 25.3503C76.3532 25.2028 76.2477 25.0026 76.1846 24.7496C76.1213 24.4967 76.0897 24.249 76.0897 24.0066C76.0897 23.6167 76.1346 23.3136 76.2241 23.0977C76.3137 22.8815 76.4163 22.7209 76.5323 22.6155C76.6378 22.51 76.7774 22.4205 76.9513 22.3467C77.1251 22.2729 77.3543 22.2361 77.639 22.2361H78.9194C79.1935 22.2361 79.4175 22.2756 79.5913 22.3547C79.7652 22.4336 79.8996 22.5207 79.9945 22.6155C80.1631 22.7842 80.2631 22.9764 80.2949 23.1925C80.3264 23.4085 80.3422 23.5798 80.3422 23.7062V25.6823Z" fill="white"/>
<path d="M18.4792 8.77406H24.4846C24.8502 8.77406 25.2549 8.73491 25.6988 8.65658C26.1428 8.57825 26.5825 8.34764 27.0177 7.96455C27.5399 7.51189 27.8663 6.98965 27.9969 6.39783C28.1274 5.80581 28.1928 5.20523 28.1928 4.59591C28.1928 4.33489 28.184 4.03888 28.1665 3.70808C28.1492 3.37729 28.1013 3.03793 28.023 2.68964C27.9447 2.34154 27.8228 2.00637 27.6574 1.68431C27.492 1.36226 27.2702 1.07936 26.9914 0.835637C26.5911 0.487537 26.169 0.287349 25.7251 0.235068C25.2811 0.182786 24.8676 0.156738 24.4846 0.156738H17.8781C17.5473 0.156738 17.2078 0.187158 16.8597 0.248185C16.5114 0.309021 16.2155 0.461308 15.9718 0.705035C15.7281 0.948762 15.5756 1.24477 15.5148 1.59306C15.4538 1.94116 15.4233 2.23716 15.4233 2.48089V9.6619L15.4239 9.71095V13.9967H18.4792V8.77406ZM18.4787 6.42387V3.23812C18.4787 3.13355 18.4872 3.03356 18.5047 2.93774C18.5222 2.84211 18.583 2.75067 18.6876 2.6636C18.792 2.57652 18.9095 2.52861 19.0401 2.52005C19.1707 2.51131 19.2794 2.50694 19.3665 2.50694H23.623C23.8144 2.50694 24.0015 2.55048 24.1844 2.63755C24.3671 2.72462 24.5108 2.82025 24.6152 2.92481C24.8066 3.11625 24.9243 3.36873 24.9677 3.68204C25.0112 3.99535 25.0331 4.25656 25.0331 4.4655C25.0331 4.97025 24.9895 5.3271 24.9024 5.53604C24.8154 5.74497 24.7458 5.88432 24.6935 5.95391C24.5196 6.18014 24.315 6.31512 24.0798 6.35866C23.8448 6.4022 23.6751 6.42387 23.5707 6.42387H18.4787Z" fill="#2B7AF1"/>
</svg>
