<svg width="17" height="17" viewBox="0 0 17 17" fill="none" xmlns="http://www.w3.org/2000/svg">
<path d="M10.8396 11.55L12.2396 10.15C12.4281 9.9638 12.6667 9.83633 12.9263 9.78307C13.1859 9.72982 13.4554 9.75308 13.7021 9.85003L15.4083 10.5313C15.6576 10.6324 15.8713 10.8051 16.0226 11.0276C16.1738 11.25 16.2559 11.5123 16.2583 11.7813V14.9063C16.2569 15.0893 16.2184 15.2701 16.1452 15.4378C16.0721 15.6055 15.9657 15.7567 15.8326 15.8823C15.6995 16.0078 15.5423 16.1051 15.3706 16.1683C15.1988 16.2315 15.0161 16.2593 14.8333 16.25C2.87707 15.5063 0.464573 5.38128 0.00832342 1.50628C-0.012856 1.31599 0.00649507 1.12337 0.0651035 0.941094C0.123712 0.75882 0.22025 0.591021 0.348365 0.448736C0.476481 0.30645 0.633272 0.192904 0.808422 0.115565C0.983572 0.0382273 1.17311 -0.00114947 1.36457 2.55431e-05H4.38332C4.6527 0.00082291 4.91569 0.0821927 5.13845 0.233669C5.3612 0.385145 5.53355 0.5998 5.63332 0.850026L6.31457 2.55628C6.41473 2.80194 6.44028 3.07168 6.38804 3.33178C6.3358 3.59189 6.20807 3.83084 6.02082 4.01878L4.62082 5.41878C4.62082 5.41878 5.42707 10.875 10.8396 11.55Z" fill="#2B7AF1"/>
</svg>
