<svg width="21" height="13" viewBox="0 0 21 13" fill="none" xmlns="http://www.w3.org/2000/svg">
<path d="M20.806 11.4698C20.806 11.3868 20.723 11.3868 20.723 11.3038C20.3909 10.6396 19.6437 9.80936 18.6474 8.8961C18.1493 8.48099 17.9002 8.14889 17.7342 7.98285C17.4851 7.65075 17.4851 7.40169 17.5681 7.0696C17.6512 6.82053 17.9832 6.40541 18.5644 5.6582C18.8965 5.24309 19.0625 4.99403 19.3116 4.74496C20.5569 3.0845 21.1381 2.00519 20.972 1.50706L20.889 1.42404C20.806 1.34102 20.723 1.258 20.5569 1.258C20.3909 1.17497 20.1418 1.17497 19.8928 1.258H16.7379C16.6549 1.258 16.6549 1.258 16.4888 1.258C16.4058 1.258 16.3228 1.258 16.3228 1.258H16.2398H16.1567L16.0737 1.34101C15.9907 1.42404 15.9907 1.42403 15.9907 1.50706C15.6586 2.42031 15.2435 3.16751 14.8284 3.99774C14.5793 4.41286 14.3302 4.82798 14.0812 5.16007C13.8321 5.49216 13.666 5.74123 13.5 5.90727C13.3339 6.07332 13.1679 6.15634 13.0849 6.32239C13.0018 6.40541 12.8358 6.48844 12.8358 6.40542C12.7528 6.40542 12.6698 6.40541 12.6698 6.32239C12.5867 6.23937 12.5037 6.15634 12.4207 6.07332C12.3377 5.99029 12.3377 5.82425 12.2546 5.6582C12.2546 5.49216 12.2546 5.32611 12.2546 5.24309C12.2546 5.16006 12.2546 4.911 12.2546 4.74496C12.2546 4.49589 12.2546 4.32984 12.2546 4.24681C12.2546 3.99775 12.2546 3.66566 12.2546 3.33357C12.2546 3.00148 12.2546 2.7524 12.2546 2.58636C12.2546 2.42031 12.2546 2.17124 12.2546 2.0052C12.2546 1.75613 12.2546 1.59008 12.2546 1.50706C12.2546 1.42403 12.1716 1.25799 12.1716 1.17497C12.0886 1.09195 12.0056 1.00892 11.9226 0.925898C11.8395 0.842875 11.6735 0.842877 11.5905 0.759854C11.1754 0.676831 10.6772 0.593811 10.0961 0.593811C8.7677 0.593811 7.85444 0.676836 7.52235 0.842882C7.3563 0.925905 7.19026 1.00892 7.10723 1.17497C6.94119 1.34101 6.94118 1.42404 7.02421 1.42404C7.43932 1.50706 7.77142 1.6731 7.93746 1.92217L8.02049 2.08823C8.10351 2.17125 8.1035 2.33729 8.18652 2.58636C8.26955 2.83543 8.26955 3.08449 8.26955 3.41659C8.26955 3.91472 8.26955 4.41287 8.26955 4.74496C8.26955 5.16007 8.18652 5.40913 8.18652 5.6582C8.18652 5.90727 8.10351 6.07332 8.02049 6.15634C7.93747 6.32239 7.93746 6.40542 7.85444 6.40542C7.85444 6.40542 7.85443 6.48843 7.77141 6.48843C7.68838 6.48843 7.60537 6.57146 7.43932 6.57146C7.3563 6.57146 7.19026 6.48844 7.10723 6.40542C6.94119 6.32239 6.77514 6.15635 6.69212 5.9903C6.52607 5.82426 6.36002 5.57518 6.19398 5.24309C6.02793 4.911 5.77885 4.57891 5.61281 4.08077L5.44678 3.74868C5.36375 3.58264 5.19771 3.25054 5.03166 2.83543C4.86562 2.42031 4.69956 2.08823 4.53352 1.67311C4.4505 1.50707 4.36748 1.42404 4.28446 1.34101H4.20143C4.20143 1.34101 4.1184 1.258 4.03538 1.258C3.95235 1.258 3.86934 1.17497 3.78632 1.17497H0.797487C0.465395 1.17497 0.299352 1.25799 0.216329 1.34101L0.133301 1.42404C0.133301 1.42404 0.133301 1.50706 0.133301 1.59008C0.133301 1.67311 0.133306 1.75612 0.216329 1.92217C0.631443 2.91845 1.12958 3.91473 1.62772 4.911C2.12585 5.82425 2.624 6.65448 2.95609 7.23565C3.3712 7.81681 3.70329 8.39797 4.1184 8.8961C4.53352 9.39424 4.78258 9.72633 4.86561 9.89238C5.03165 10.0584 5.11467 10.1414 5.19769 10.2245L5.44678 10.4735C5.61282 10.6396 5.86189 10.8887 6.19398 11.1377C6.52607 11.3868 6.94118 11.6359 7.35629 11.8849C7.77141 12.134 8.26956 12.3 8.76769 12.4661C9.34885 12.6321 9.84699 12.7152 10.3451 12.6321H11.5905C11.8395 12.6321 12.0056 12.5491 12.1716 12.3831L12.2546 12.3C12.2546 12.217 12.3377 12.217 12.3377 12.134C12.3377 12.051 12.3377 11.968 12.3377 11.8019C12.3377 11.4698 12.3377 11.2207 12.4207 10.9717C12.5037 10.7226 12.5037 10.5566 12.5868 10.3905C12.6698 10.2245 12.7528 10.1414 12.8358 10.0584C12.9188 9.9754 13.0019 9.89238 13.0019 9.89238H13.0849C13.2509 9.80935 13.5 9.89237 13.666 10.0584C13.9151 10.2245 14.1642 10.4735 14.3302 10.7226C14.4963 10.9717 14.7453 11.2207 15.0774 11.5528C15.4095 11.8849 15.6586 12.134 15.8246 12.217L16.0737 12.3831C16.2397 12.4661 16.4058 12.5491 16.6549 12.6321C16.9039 12.7152 17.07 12.7152 17.236 12.7152L20.0588 12.6321C20.3079 12.6321 20.5569 12.5491 20.723 12.4661C20.889 12.3831 20.972 12.3 20.972 12.134C20.972 12.051 20.972 11.8849 20.972 11.8019C20.806 11.6359 20.806 11.5528 20.806 11.4698Z" fill="white"/>
</svg>
