<svg width="50" height="51" viewBox="0 0 50 51" fill="none" xmlns="http://www.w3.org/2000/svg">
<g clip-path="url(#clip0)">
<path d="M35.0323 16.9149C33.5738 16.9149 32.1468 17.1225 30.7711 17.5313C30.8255 17.0053 30.8537 16.4716 30.8537 15.9315C30.8537 13.4599 30.2864 11.0983 29.1678 8.91244C28.9219 8.43236 28.3336 8.24242 27.8538 8.48803C27.3738 8.73383 27.1837 9.32201 27.4293 9.80209C28.4057 11.7098 28.9007 13.772 28.9007 15.9314C28.9007 23.3611 22.8563 29.4055 15.4267 29.4055C13.6947 29.4055 12.0077 29.0811 10.4131 28.4412C10.0503 28.296 9.63556 28.3806 9.3591 28.657L7.22521 30.7911V27.0933C7.22521 26.8015 7.09464 26.525 6.86935 26.3394C3.74483 23.7673 1.95274 19.9737 1.95274 15.9314C1.95274 8.5017 7.99718 2.45735 15.4268 2.45735C17.2201 2.45735 18.9611 2.80364 20.6016 3.48665C21.1309 3.70696 21.6517 3.96429 22.1495 4.2515C22.6164 4.52083 23.2135 4.36077 23.4831 3.89368C23.7525 3.42669 23.5923 2.82952 23.1252 2.56009C22.5551 2.23128 21.9585 1.93636 21.3522 1.68391C19.4727 0.901392 17.4791 0.504517 15.4269 0.504517C6.92052 0.504517 0 7.42504 0 15.9314C0 20.4038 1.91553 24.61 5.27247 27.5451V33.1482C5.27247 33.5432 5.51046 33.8992 5.87521 34.0503C5.99601 34.1003 6.12286 34.1246 6.24864 34.1246C6.50275 34.1246 6.75245 34.0254 6.93927 33.8387L10.2948 30.4831C11.9402 31.0641 13.6633 31.3582 15.4269 31.3582C17.062 31.3582 18.6381 31.1015 20.1181 30.628C20.0832 31.0452 20.0647 31.464 20.0647 31.8824C20.0647 34.1682 20.5667 36.3625 21.5569 38.4048C21.7257 38.7526 22.0737 38.9554 22.4361 38.9554C22.579 38.9554 22.7242 38.9239 22.8614 38.8573C23.3465 38.6221 23.5492 38.038 23.3139 37.5527C22.4536 35.7783 22.0173 33.8706 22.0173 31.8825C22.0173 31.1842 22.0743 30.4848 22.1851 29.7969C26.2104 27.8268 29.257 24.1551 30.3812 19.7244C31.8635 19.1562 33.4256 18.8676 35.0322 18.8676C42.2087 18.8676 48.0472 24.7061 48.0472 31.8825C48.0472 35.8691 46.2557 39.582 43.1322 42.0694C42.8995 42.2546 42.764 42.5358 42.764 42.8332V47.1619L40.0895 44.4874C39.829 44.227 39.4443 44.1353 39.0946 44.2501C37.7861 44.6796 36.4193 44.8975 35.0322 44.8975C33.0478 44.8975 31.143 44.4627 29.3711 43.6052C28.8859 43.3704 28.3018 43.5734 28.0668 44.0588C27.832 44.5442 28.0351 45.128 28.5205 45.363C30.5598 46.3497 32.7507 46.8501 35.0322 46.8501C36.4228 46.8501 37.7964 46.6595 39.1235 46.2827L43.0501 50.2093C43.2369 50.3961 43.4866 50.4952 43.7407 50.4952C43.8665 50.4952 43.9934 50.4709 44.1141 50.4209C44.4789 50.2698 44.7169 49.9138 44.7169 49.5189V43.2943C48.0807 40.4403 49.9999 36.3082 49.9999 31.8824C50.0001 23.6294 43.2855 16.9149 35.0323 16.9149Z" fill="#2B7AF1"/>
<path d="M25.9687 41.2226C25.9387 41.1937 25.909 41.1646 25.8794 41.1352C25.4966 40.7556 24.8783 40.7584 24.4987 41.1413C24.1191 41.5242 24.1219 42.1425 24.5048 42.5221C24.5393 42.5563 24.5739 42.5901 24.6087 42.6238C24.7984 42.808 25.0436 42.8995 25.2886 42.8995C25.5434 42.8995 25.798 42.8003 25.9894 42.6032C26.3649 42.2162 26.3556 41.5981 25.9687 41.2226Z" fill="url(#paint0_linear)"/>
<path d="M26.7477 5.45136C26.3238 4.99892 25.7083 5.06572 25.3581 5.39189C25.008 5.71777 24.8974 6.32705 25.3184 6.78222C25.3214 6.78535 25.3244 6.78857 25.3273 6.7917C25.5381 7.01347 25.7944 7.10849 26.0421 7.10849C26.2964 7.10849 26.5411 7.0082 26.7175 6.84199C27.0653 6.51367 27.1718 5.90371 26.7477 5.45136Z" fill="url(#paint1_linear)"/>
<path d="M11.1794 12.5621C10.9978 12.3805 10.7468 12.276 10.4891 12.276C10.2322 12.276 9.98037 12.3805 9.79873 12.5621C9.61719 12.7437 9.5127 12.9955 9.5127 13.2524C9.5127 13.5092 9.61719 13.7611 9.79873 13.9427C9.98037 14.1243 10.2322 14.2287 10.4891 14.2287C10.7459 14.2287 10.9978 14.1243 11.1794 13.9427C11.362 13.7611 11.4654 13.5092 11.4654 13.2524C11.4654 12.9955 11.3619 12.7436 11.1794 12.5621Z" fill="url(#paint2_linear)"/>
<path d="M21.0549 12.5621C20.8733 12.3805 20.6215 12.276 20.3646 12.276C20.1067 12.276 19.8549 12.3805 19.6733 12.5621C19.4917 12.7437 19.3882 12.9955 19.3882 13.2524C19.3882 13.5092 19.4918 13.7611 19.6733 13.9427C19.8559 14.1243 20.1077 14.2287 20.3646 14.2287C20.6214 14.2287 20.8723 14.1243 21.0549 13.9427C21.2365 13.7611 21.3409 13.5092 21.3409 13.2524C21.3409 12.9955 21.2366 12.7436 21.0549 12.5621Z" fill="url(#paint3_linear)"/>
<path d="M19.1655 18.3299C18.6442 18.1903 18.1093 18.5003 17.9701 19.0212C17.6627 20.1723 16.6169 20.9762 15.427 20.9762C14.237 20.9762 13.1913 20.1723 12.8838 19.0212C12.7447 18.5002 12.2096 18.1902 11.6885 18.3299C11.1675 18.4691 10.858 19.0042 10.9972 19.5252C11.5326 21.5293 13.3541 22.9289 15.427 22.9289C17.4997 22.9289 19.3213 21.5293 19.8568 19.5252C19.9959 19.0041 19.6865 18.469 19.1655 18.3299Z" fill="#2B7AF1"/>
<path d="M30.9493 28.5805C30.7678 28.3989 30.5169 28.2945 30.2591 28.2945C30.0022 28.2945 29.7504 28.3989 29.5687 28.5805C29.3871 28.7623 29.2827 29.014 29.2827 29.2709C29.2827 29.5287 29.3871 29.7796 29.5687 29.9611C29.7504 30.1427 30.0022 30.2472 30.2591 30.2472C30.5169 30.2472 30.7678 30.1427 30.9493 29.9611C31.1319 29.7796 31.2355 29.5277 31.2355 29.2709C31.2355 29.014 31.1319 28.7622 30.9493 28.5805Z" fill="url(#paint4_linear)"/>
<path d="M40.4953 28.5807C40.3137 28.399 40.0627 28.2946 39.805 28.2946C39.5481 28.2946 39.2963 28.399 39.1147 28.5807C38.9331 28.7623 38.8286 29.0142 38.8286 29.271C38.8286 29.5288 38.9331 29.7797 39.1147 29.9612C39.2963 30.1429 39.5481 30.2474 39.805 30.2474C40.0627 30.2473 40.3137 30.1428 40.4953 29.9612C40.6769 29.7797 40.7814 29.5278 40.7814 29.271C40.7814 29.0142 40.677 28.7623 40.4953 28.5807Z" fill="url(#paint5_linear)"/>
<path d="M30.7186 35.3441C31.2398 37.2956 33.0138 38.6587 35.0323 38.6587C37.0507 38.6587 38.8247 37.2957 39.346 35.3441C39.4853 34.8231 39.1757 34.2881 38.6547 34.1488C38.1333 34.0092 37.5987 34.3192 37.4594 34.8401C37.166 35.9387 36.1677 36.7059 35.0324 36.7059C33.8967 36.7059 32.8986 35.9386 32.6052 34.8401C32.4886 34.4035 32.094 34.1154 31.6625 34.1154C31.5791 34.1154 31.4943 34.1262 31.4099 34.1488C30.8888 34.2881 30.5793 34.8231 30.7186 35.3441Z" fill="#2B7AF1"/>
</g>
<defs>
<linearGradient id="paint0_linear" x1="24.2158" y1="41.8759" x2="26.2654" y2="41.8676" gradientUnits="userSpaceOnUse">
<stop stop-color="#FF7A00"/>
<stop offset="1" stop-color="#FFB039"/>
</linearGradient>
<linearGradient id="paint1_linear" x1="25.0464" y1="6.11907" x2="27.0247" y2="6.11109" gradientUnits="userSpaceOnUse">
<stop stop-color="#FF7A00"/>
<stop offset="1" stop-color="#FFB039"/>
</linearGradient>
<linearGradient id="paint2_linear" x1="9.5127" y1="13.2524" x2="11.4658" y2="13.2445" gradientUnits="userSpaceOnUse">
<stop stop-color="#FF7A00"/>
<stop offset="1" stop-color="#FFB039"/>
</linearGradient>
<linearGradient id="paint3_linear" x1="19.3882" y1="13.2524" x2="21.3413" y2="13.2445" gradientUnits="userSpaceOnUse">
<stop stop-color="#FF7A00"/>
<stop offset="1" stop-color="#FFB039"/>
</linearGradient>
<linearGradient id="paint4_linear" x1="29.2827" y1="29.2709" x2="31.2358" y2="29.263" gradientUnits="userSpaceOnUse">
<stop stop-color="#FF7A00"/>
<stop offset="1" stop-color="#FFB039"/>
</linearGradient>
<linearGradient id="paint5_linear" x1="38.8286" y1="29.271" x2="40.7817" y2="29.2631" gradientUnits="userSpaceOnUse">
<stop stop-color="#FF7A00"/>
<stop offset="1" stop-color="#FFB039"/>
</linearGradient>
<clipPath id="clip0">
<rect width="50" height="50" fill="white" transform="translate(0 0.5)"/>
</clipPath>
</defs>
</svg>
