<svg width="50" height="51" viewBox="0 0 50 51" fill="none" xmlns="http://www.w3.org/2000/svg">
<g clip-path="url(#clip0)">
<path d="M48.2811 16.8758H47.8038L43.3291 4.82842C42.9373 3.77363 41.9182 3.06494 40.793 3.06494H9.20693C8.08184 3.06494 7.0626 3.77363 6.6708 4.82842L2.19619 16.8758H1.71895C0.771094 16.8758 0 17.6469 0 18.5947V19.9758C0 20.9236 0.771094 21.6947 1.71895 21.6947H1.97305V37.7484C1.97305 38.1529 2.30088 38.4809 2.70547 38.4809C3.11006 38.4809 3.43789 38.1529 3.43789 37.7484V21.6947H14.9379C15.5814 21.6947 16.1865 21.4441 16.6417 20.989L25 12.6305L33.3585 20.989C33.8136 21.444 34.4187 21.6946 35.0622 21.6946H46.5622V23.6364C46.5622 24.0409 46.89 24.3688 47.2946 24.3688C47.6992 24.3688 48.0271 24.0409 48.0271 23.6364V21.6946H48.2812C49.2289 21.6946 50.0001 20.9235 50.0001 19.9757V18.5946C50 17.6469 49.2289 16.8758 48.2811 16.8758ZM8.04395 5.33838C8.22363 4.85469 8.69102 4.52979 9.20693 4.52979H40.793C41.3089 4.52979 41.7763 4.85478 41.956 5.33838L46.2412 16.8758H36.0603L26.7037 7.51934C26.2486 7.06426 25.6437 6.81357 25 6.81357C24.3563 6.81357 23.7514 7.06416 23.2963 7.51934L13.9397 16.8758H3.75869L8.04395 5.33838ZM48.5352 19.9758C48.5352 20.1159 48.4212 20.2299 48.2811 20.2299H35.0622C34.8099 20.2299 34.5726 20.1316 34.3942 19.9532L25.5179 11.0769C25.3805 10.9395 25.1942 10.8623 24.9999 10.8623C24.8056 10.8623 24.6194 10.9395 24.4819 11.0769L15.6057 19.9532C15.4272 20.1316 15.1899 20.2299 14.9376 20.2299H1.71895C1.57881 20.2299 1.46484 20.1159 1.46484 19.9758V18.5947C1.46484 18.4546 1.57881 18.3406 1.71895 18.3406H14.2432C14.4374 18.3406 14.6236 18.2635 14.7611 18.1261L24.3322 8.55508C24.5105 8.37666 24.7478 8.27842 25.0001 8.27842C25.2524 8.27842 25.4896 8.37666 25.668 8.55508L35.2391 18.1261C35.3765 18.2635 35.5627 18.3406 35.757 18.3406H48.2812C48.4214 18.3406 48.5354 18.4546 48.5354 18.5947V19.9758H48.5352Z" fill="#2B7AF1"/>
<path d="M44.0393 42.0163C44.4438 42.0163 44.7717 41.6884 44.7717 41.2839V28.2623C44.7717 27.8578 44.4438 27.5299 44.0393 27.5299H34.1743C33.7697 27.5299 33.4419 27.8578 33.4419 28.2623V41.2839C33.4419 41.6884 33.7697 42.0163 34.1743 42.0163H44.0393ZM43.3068 37.3948H39.8392V33.9272H43.3068V37.3948ZM38.3743 37.3948H34.9067V33.9272H38.3743V37.3948ZM43.3068 40.5515H34.9067V38.8596H43.3068V40.5515ZM43.3068 32.4622H39.8392V28.9947H43.3068V32.4622ZM38.3743 28.9948V32.4623H34.9067V28.9948H38.3743Z" fill="#2B7AF1"/>
<path d="M15.8259 42.0163C16.2305 42.0163 16.5583 41.6884 16.5583 41.2839V28.2623C16.5583 27.8578 16.2305 27.5299 15.8259 27.5299H5.96094C5.55635 27.5299 5.22852 27.8578 5.22852 28.2623V41.2839C5.22852 41.6884 5.55635 42.0163 5.96094 42.0163H15.8259ZM15.0935 37.3948H11.6259V33.9272H15.0935V37.3948ZM10.161 37.3948H6.69336V33.9272H10.161V37.3948ZM15.0935 40.5515H6.69336V38.8596H15.0935V40.5515ZM15.0935 32.4622H11.6259V28.9947H15.0935V32.4622ZM10.161 28.9948V32.4623H6.69336V28.9948H10.161Z" fill="#2B7AF1"/>
<path d="M27.3675 30.6866H22.6323C22.2277 30.6866 21.8999 31.0146 21.8999 31.4191V34.5758C21.8999 34.9803 22.2277 35.3082 22.6323 35.3082H27.3675C27.7721 35.3082 28.0999 34.9803 28.0999 34.5758V31.4191C28.0999 31.0146 27.7721 30.6866 27.3675 30.6866ZM26.6351 33.8434H23.3647V32.1515H26.6351V33.8434Z" fill="url(#paint0_linear)"/>
<path d="M28.8892 21.4556C28.8892 19.3111 27.1445 17.5664 25 17.5664C22.8555 17.5664 21.1108 19.3111 21.1108 21.4556C21.1108 23.6 22.8555 25.3448 25 25.3448C27.1445 25.3448 28.8892 23.6001 28.8892 21.4556ZM22.5757 21.4556C22.5757 20.1188 23.6633 19.0312 25 19.0312C26.3367 19.0312 27.4243 20.1188 27.4243 21.4556C27.4243 22.7923 26.3367 23.88 25 23.88C23.6633 23.88 22.5757 22.7924 22.5757 21.4556Z" fill="url(#paint1_linear)"/>
<path d="M49.2676 43.1163H48.0271V27.0626C48.0271 26.6581 47.6992 26.3302 47.2946 26.3302C46.89 26.3302 46.5622 26.6581 46.5622 27.0626V43.1163H31.2567V28.2623C31.2567 27.8578 30.9289 27.5299 30.5243 27.5299H19.4757C19.0711 27.5299 18.7433 27.8578 18.7433 28.2623V43.1163H3.43779V41.1745C3.43779 40.77 3.10996 40.4421 2.70537 40.4421C2.30078 40.4421 1.97295 40.77 1.97295 41.1745V43.1163H0.732422C0.327832 43.1163 0 43.4443 0 43.8488V47.2029C0 47.6073 0.327832 47.9353 0.732422 47.9353H49.2676C49.6722 47.9353 50 47.6073 50 47.2029V43.8488C50 43.4443 49.6722 43.1163 49.2676 43.1163ZM20.2081 37.7744H21.2515C21.6561 37.7744 21.9839 37.4465 21.9839 37.042C21.9839 36.6375 21.6561 36.3096 21.2515 36.3096H20.2081V28.9948H29.792V43.1163H20.2081V37.7744ZM48.5352 46.4704H1.46484V44.5812H48.5352V46.4704Z" fill="#2B7AF1"/>
</g>
<defs>
<linearGradient id="paint0_linear" x1="21.8999" y1="32.9974" x2="28.101" y2="32.9639" gradientUnits="userSpaceOnUse">
<stop stop-color="#FF7A00"/>
<stop offset="1" stop-color="#FFB039"/>
</linearGradient>
<linearGradient id="paint1_linear" x1="21.1108" y1="21.4556" x2="28.8906" y2="21.4242" gradientUnits="userSpaceOnUse">
<stop stop-color="#FF7A00"/>
<stop offset="1" stop-color="#FFB039"/>
</linearGradient>
<clipPath id="clip0">
<rect width="50" height="50" fill="white" transform="translate(0 0.5)"/>
</clipPath>
</defs>
</svg>
