<svg width="330" height="309" viewBox="0 0 330 309" fill="none" xmlns="http://www.w3.org/2000/svg">
<ellipse cx="20" cy="236.061" rx="20" ry="3.1467" fill="url(#paint0_radial)" fill-opacity="0.5"/>
<path d="M21 198.825C17.3546 198.83 13.8597 200.351 11.282 203.055C8.70435 205.758 7.25432 209.424 7.25001 213.248C7.24565 216.372 8.21874 219.412 10.02 221.901C10.02 221.901 10.395 222.419 10.4563 222.494L21 235.537L31.5488 222.487C31.6038 222.418 31.98 221.901 31.98 221.901L31.9813 221.897C33.7816 219.409 34.7543 216.371 34.75 213.248C34.7457 209.424 33.2957 205.758 30.718 203.055C28.1403 200.351 24.6454 198.83 21 198.825ZM25.5 219.803L21 216.8L16.5 219.803L17.25 214.462L13.5 210.852L18.75 210.188L21 205.381L23.39 210.189L28.5 210.852L24.75 214.462L25.5 219.803Z" fill="#F73E3E"/>
<ellipse cx="209" cy="268.577" rx="20" ry="3.1467" fill="url(#paint1_radial)" fill-opacity="0.5"/>
<path d="M210 231.341C206.355 231.346 202.86 232.867 200.282 235.57C197.704 238.274 196.254 241.94 196.25 245.763C196.246 248.888 197.219 251.928 199.02 254.417C199.02 254.417 199.395 254.935 199.456 255.009L210 268.053L220.549 255.003C220.604 254.933 220.98 254.417 220.98 254.417L220.981 254.413C222.782 251.925 223.754 248.887 223.75 245.763C223.746 241.94 222.296 238.274 219.718 235.57C217.14 232.867 213.645 231.346 210 231.341ZM214.5 252.319L210 249.315L205.5 252.319L206.25 246.978L202.5 243.368L207.75 242.703L210 237.897L212.39 242.705L217.5 243.368L213.75 246.978L214.5 252.319Z" fill="#F73E3E"/>
<ellipse cx="68" cy="121.731" rx="20" ry="3.1467" fill="url(#paint2_radial)" fill-opacity="0.5"/>
<path d="M69 84.4951C65.3546 84.4996 61.8597 86.0206 59.282 88.7243C56.7044 91.4281 55.2543 95.0938 55.25 98.9175C55.2456 102.042 56.2187 105.082 58.02 107.571C58.02 107.571 58.395 108.089 58.4563 108.164L69 121.207L79.5488 108.157C79.6038 108.087 79.98 107.571 79.98 107.571L79.9813 107.567C81.7816 105.079 82.7543 102.041 82.75 98.9175C82.7457 95.0938 81.2957 91.4281 78.718 88.7243C76.1403 86.0206 72.6454 84.4996 69 84.4951ZM73.5 105.473L69 102.469L64.5 105.473L65.25 100.132L61.5 96.5221L66.75 95.8573L69 91.0507L71.39 95.8586L76.5 96.5221L72.75 100.132L73.5 105.473Z" fill="#F73E3E"/>
<ellipse cx="237" cy="48.3081" rx="20" ry="3.1467" fill="url(#paint3_radial)" fill-opacity="0.5"/>
<path d="M238 11.0722C234.355 11.0767 230.86 12.5977 228.282 15.3014C225.704 18.0051 224.254 21.6709 224.25 25.4946C224.246 28.6193 225.219 31.6592 227.02 34.148C227.02 34.148 227.395 34.6659 227.456 34.7406L238 47.7837L248.549 34.7341C248.604 34.6646 248.98 34.148 248.98 34.148L248.981 34.1441C250.782 31.6564 251.754 28.6178 251.75 25.4946C251.746 21.6709 250.296 18.0051 247.718 15.3014C245.14 12.5977 241.645 11.0767 238 11.0722ZM242.5 32.0502L238 29.0464L233.5 32.0502L234.25 26.7087L230.5 23.0992L235.75 22.4344L238 17.6278L240.39 22.4357L245.5 23.0992L241.75 26.7087L242.5 32.0502Z" fill="#F73E3E"/>
<ellipse cx="123" cy="39.9168" rx="20" ry="3.1467" fill="url(#paint4_radial)" fill-opacity="0.5"/>
<path d="M124 2.68088C120.355 2.68539 116.86 4.20633 114.282 6.91007C111.704 9.61382 110.254 13.2796 110.25 17.1032C110.246 20.228 111.219 23.2679 113.02 25.7567C113.02 25.7567 113.395 26.2746 113.456 26.3493L124 39.3924L134.549 26.3427C134.604 26.2733 134.98 25.7567 134.98 25.7567L134.981 25.7527C136.782 23.265 137.754 20.2265 137.75 17.1032C137.746 13.2796 136.296 9.61382 133.718 6.91007C131.14 4.20633 127.645 2.68539 124 2.68088ZM128.5 23.6589L124 20.6551L119.5 23.6589L120.25 18.3173L116.5 14.7078L121.75 14.0431L124 9.2365L126.39 14.0444L131.5 14.7078L127.75 18.3173L128.5 23.6589Z" fill="#F73E3E"/>
<ellipse cx="262" cy="249.697" rx="20" ry="3.1467" fill="url(#paint5_radial)" fill-opacity="0.5"/>
<path d="M263 212.461C259.355 212.466 255.86 213.986 253.282 216.69C250.704 219.394 249.254 223.06 249.25 226.883C249.246 230.008 250.219 233.048 252.02 235.537C252.02 235.537 252.395 236.055 252.456 236.129L263 249.173L273.549 236.123C273.604 236.053 273.98 235.537 273.98 235.537L273.981 235.533C275.782 233.045 276.754 230.007 276.75 226.883C276.746 223.06 275.296 219.394 272.718 216.69C270.14 213.986 266.645 212.466 263 212.461ZM267.5 233.439L263 230.435L258.5 233.439L259.25 228.097L255.5 224.488L260.75 223.823L263 219.017L265.39 223.825L270.5 224.488L266.75 228.097L267.5 233.439Z" fill="#F73E3E"/>
<ellipse cx="36" cy="305.288" rx="20" ry="3.1467" fill="url(#paint6_radial)" fill-opacity="0.5"/>
<path d="M37 268.053C33.3546 268.057 29.8597 269.578 27.282 272.282C24.7044 274.985 23.2543 278.651 23.25 282.475C23.2456 285.6 24.2187 288.64 26.02 291.128C26.02 291.128 26.395 291.646 26.4563 291.721L37 304.764L47.5488 291.714C47.6038 291.645 47.98 291.128 47.98 291.128L47.9813 291.124C49.7816 288.637 50.7543 285.598 50.75 282.475C50.7457 278.651 49.2957 274.985 46.718 272.282C44.1403 269.578 40.6454 268.057 37 268.053ZM41.5 289.031L37 286.027L32.5 289.031L33.25 283.689L29.5 280.079L34.75 279.415L37 274.608L39.39 279.416L44.5 280.079L40.75 283.689L41.5 289.031Z" fill="#F73E3E"/>
<ellipse cx="309" cy="173.127" rx="20" ry="3.1467" fill="url(#paint7_radial)" fill-opacity="0.5"/>
<path d="M310 135.891C306.355 135.896 302.86 137.417 300.282 140.12C297.704 142.824 296.254 146.49 296.25 150.314C296.246 153.438 297.219 156.478 299.02 158.967C299.02 158.967 299.395 159.485 299.456 159.56L310 172.603L320.549 159.553C320.604 159.484 320.98 158.967 320.98 158.967L320.981 158.963C322.782 156.475 323.754 153.437 323.75 150.314C323.746 146.49 322.296 142.824 319.718 140.12C317.14 137.417 313.645 135.896 310 135.891ZM314.5 156.869L310 153.866L305.5 156.869L306.25 151.528L302.5 147.918L307.75 147.254L310 142.447L312.39 147.255L317.5 147.918L313.75 151.528L314.5 156.869Z" fill="#F73E3E"/>
<defs>
<radialGradient id="paint0_radial" cx="0" cy="0" r="1" gradientUnits="userSpaceOnUse" gradientTransform="translate(20 236.061) rotate(90) scale(3.1467 20)">
<stop stop-color="#111111"/>
<stop offset="1" stop-color="#111111" stop-opacity="0"/>
</radialGradient>
<radialGradient id="paint1_radial" cx="0" cy="0" r="1" gradientUnits="userSpaceOnUse" gradientTransform="translate(209 268.577) rotate(90) scale(3.1467 20)">
<stop stop-color="#111111"/>
<stop offset="1" stop-color="#111111" stop-opacity="0"/>
</radialGradient>
<radialGradient id="paint2_radial" cx="0" cy="0" r="1" gradientUnits="userSpaceOnUse" gradientTransform="translate(68 121.731) rotate(90) scale(3.1467 20)">
<stop stop-color="#111111"/>
<stop offset="1" stop-color="#111111" stop-opacity="0"/>
</radialGradient>
<radialGradient id="paint3_radial" cx="0" cy="0" r="1" gradientUnits="userSpaceOnUse" gradientTransform="translate(237 48.3081) rotate(90) scale(3.1467 20)">
<stop stop-color="#111111"/>
<stop offset="1" stop-color="#111111" stop-opacity="0"/>
</radialGradient>
<radialGradient id="paint4_radial" cx="0" cy="0" r="1" gradientUnits="userSpaceOnUse" gradientTransform="translate(123 39.9168) rotate(90) scale(3.1467 20)">
<stop stop-color="#111111"/>
<stop offset="1" stop-color="#111111" stop-opacity="0"/>
</radialGradient>
<radialGradient id="paint5_radial" cx="0" cy="0" r="1" gradientUnits="userSpaceOnUse" gradientTransform="translate(262 249.697) rotate(90) scale(3.1467 20)">
<stop stop-color="#111111"/>
<stop offset="1" stop-color="#111111" stop-opacity="0"/>
</radialGradient>
<radialGradient id="paint6_radial" cx="0" cy="0" r="1" gradientUnits="userSpaceOnUse" gradientTransform="translate(36 305.288) rotate(90) scale(3.1467 20)">
<stop stop-color="#111111"/>
<stop offset="1" stop-color="#111111" stop-opacity="0"/>
</radialGradient>
<radialGradient id="paint7_radial" cx="0" cy="0" r="1" gradientUnits="userSpaceOnUse" gradientTransform="translate(309 173.127) rotate(90) scale(3.1467 20)">
<stop stop-color="#111111"/>
<stop offset="1" stop-color="#111111" stop-opacity="0"/>
</radialGradient>
</defs>
</svg>
