<svg width="58" height="70" viewBox="0 0 58 70" fill="none" xmlns="http://www.w3.org/2000/svg">
<path opacity="0.9" fill-rule="evenodd" clip-rule="evenodd" d="M-0.00012207 58.7372C10.5874 52.6974 15.8811 45.6007 15.8811 37.4469C11.3684 36.8429 7.63678 34.7038 4.68615 31.0296C1.73552 27.3553 0.260231 23.1023 0.260231 18.2704C0.260231 13.1366 1.69213 8.80808 4.55598 5.28484C7.41983 1.76159 11.0213 0 15.3604 0C20.2203 0 24.4292 2.29007 27.9874 6.87029C31.5455 11.4505 33.3245 17.0121 33.3245 23.5553C33.3245 43.1848 23.8653 58.5358 4.9465 69.6089L-0.00012207 58.7372ZM37.3638 58.7372C48.0382 52.6974 53.3753 45.6007 53.3753 37.4469C48.7758 36.8429 45.0008 34.7038 42.0501 31.0296C39.0995 27.3553 37.6242 23.1023 37.6242 18.2704C37.6242 13.1366 39.0778 8.80808 41.985 5.28484C44.8923 1.76159 48.5154 0 52.8546 0C57.7145 0 61.9017 2.29007 65.4164 6.87029C68.9311 11.4505 70.6885 17.0121 70.6885 23.5553C70.6885 43.1848 61.2726 58.5358 42.4406 69.6089L37.3638 58.7372Z" fill="url(#paint0_linear)"/>
<defs>
<linearGradient id="paint0_linear" x1="70.6885" y1="34.8045" x2="-0.0131994" y2="35.0942" gradientUnits="userSpaceOnUse">
<stop stop-color="#FF7A00"/>
<stop offset="1" stop-color="#FFB039"/>
</linearGradient>
</defs>
</svg>
