<svg width="60" height="60" viewBox="0 0 60 60" fill="none" xmlns="http://www.w3.org/2000/svg">
<g clip-path="url(#clip0)">
<path d="M54.6554 10.3607C46.4001 8.09873 38.0963 4.57666 30.6417 0.175341C30.2457 -0.0584472 29.7543 -0.0584472 29.3585 0.175341C21.6888 4.70311 13.8338 8.03462 5.34412 10.3607C4.79568 10.5108 4.41553 11.0093 4.41553 11.578V24.474C4.41553 37.754 10.542 46.5445 15.6816 51.5801C21.2147 57.0018 27.66 60 30.0001 60C32.34 60 38.7853 57.0018 44.3184 51.5801C49.4579 46.5446 55.5839 37.7541 55.5839 24.474V11.5779C55.5839 11.0093 55.2038 10.5108 54.6554 10.3607ZM53.0597 24.4739C53.0597 36.8773 47.3456 45.0799 42.5517 49.777C37.1105 55.1084 31.293 57.4756 30.0001 57.4756C28.7072 57.4756 22.8893 55.1084 17.448 49.777C12.6543 45.0798 6.93986 36.8773 6.93986 24.4739V12.536C15.0584 10.2309 22.619 7.01404 30.0003 2.72463C37.1973 6.90025 45.1352 10.2771 53.0597 12.5356V24.4739Z" fill="#2B7AF1"/>
<path d="M18.8128 12.3949C18.5573 11.7462 17.8246 11.4276 17.1758 11.6832C14.9211 12.5716 12.6069 13.3893 10.2975 14.1138C9.77121 14.279 9.41309 14.7665 9.41309 15.318V20.1919C9.41309 20.889 9.97828 21.454 10.6752 21.454C11.3721 21.454 11.9373 20.889 11.9373 20.1919V16.2404C14.0091 15.5701 16.0786 14.8286 18.1011 14.0316C18.7498 13.7763 19.0684 13.0435 18.8128 12.3949Z" fill="#2B7AF1"/>
<path d="M21.2103 12.6343C21.3796 12.6343 21.5515 12.6002 21.7164 12.5282L21.7396 12.5181C22.3782 12.2383 22.6658 11.495 22.3859 10.8566C22.1058 10.2181 21.3583 9.92922 20.7205 10.2088L20.7001 10.2176C20.0612 10.4966 19.7727 11.2394 20.0517 11.878C20.2587 12.3522 20.7234 12.6343 21.2103 12.6343Z" fill="url(#paint0_linear)"/>
<path d="M45.0375 40.6972C44.4543 40.316 43.6722 40.48 43.2905 41.0634C42.2505 42.6553 41.0303 44.1797 39.6634 45.5938C38.5394 46.7565 37.3213 47.8403 36.0432 48.8147C35.489 49.2373 35.3824 50.0292 35.8048 50.5836C36.0534 50.9093 36.4292 51.0806 36.8093 51.0806C37.0763 51.0806 37.3452 50.9964 37.5738 50.822C38.9525 49.7707 40.2661 48.602 41.4781 47.3483C42.9559 45.8197 44.2766 44.1697 45.4038 42.4441C45.7852 41.8605 45.621 41.0784 45.0375 40.6972Z" fill="#2B7AF1"/>
<path d="M33.1121 50.7941L33.0397 50.8367C32.4366 51.1861 32.2304 51.9581 32.5796 52.5613C32.8137 52.9655 33.2373 53.1912 33.6731 53.1912C33.8876 53.1912 34.1053 53.1365 34.3042 53.0211L34.3877 52.972C34.9892 52.6197 35.1913 51.8466 34.839 51.2451C34.4865 50.6438 33.7133 50.4421 33.1121 50.7941Z" fill="url(#paint1_linear)"/>
<path d="M21.3971 27.4241C20.6221 26.649 19.5915 26.2224 18.4953 26.2224C17.3991 26.2224 16.3683 26.6491 15.593 27.4241C13.9931 29.0244 13.9931 31.6283 15.593 33.2285L23.0457 40.6809C23.8208 41.4557 24.8514 41.8824 25.9477 41.8824C27.044 41.8824 28.0747 41.4557 28.8498 40.6807L44.4077 25.1226C46.0076 23.522 46.0076 20.9184 44.4075 19.3187C43.6324 18.5436 42.6018 18.1171 41.5054 18.1171C40.4091 18.1171 39.3784 18.5437 38.6032 19.3187L25.9476 31.9743L21.3971 27.4241ZM40.3882 21.1037C40.6865 20.8055 41.0834 20.6413 41.5055 20.6413C41.9278 20.6413 42.3244 20.8055 42.6229 21.1037C43.2387 21.7195 43.2387 22.7219 42.6226 23.338L27.065 38.8958C26.7667 39.194 26.3698 39.3582 25.9477 39.3582C25.5256 39.3582 25.1287 39.194 24.8303 38.8958L17.3779 31.4436C16.7619 30.8275 16.7619 29.8251 17.3777 29.2093C17.676 28.9111 18.073 28.7467 18.4952 28.7467C18.9174 28.7467 19.3141 28.9108 19.6123 29.2091L25.0551 34.652C25.2919 34.8886 25.6128 35.0216 25.9476 35.0216C26.2824 35.0216 26.6032 34.8887 26.8398 34.652L40.3882 21.1037Z" fill="url(#paint2_linear)"/>
</g>
<defs>
<linearGradient id="paint0_linear" x1="19.9453" y1="11.3682" x2="22.4934" y2="11.3579" gradientUnits="userSpaceOnUse">
<stop stop-color="#FF7A00"/>
<stop offset="1" stop-color="#FFB039"/>
</linearGradient>
<linearGradient id="paint1_linear" x1="32.4097" y1="51.9061" x2="35.0127" y2="51.8955" gradientUnits="userSpaceOnUse">
<stop stop-color="#FF7A00"/>
<stop offset="1" stop-color="#FFB039"/>
</linearGradient>
<linearGradient id="paint2_linear" x1="14.3931" y1="29.9997" x2="45.613" y2="29.8343" gradientUnits="userSpaceOnUse">
<stop stop-color="#FF7A00"/>
<stop offset="1" stop-color="#FFB039"/>
</linearGradient>
<clipPath id="clip0">
<rect width="60" height="60" fill="white"/>
</clipPath>
</defs>
</svg>
