<svg width="54" height="60" viewBox="0 0 54 60" fill="none" xmlns="http://www.w3.org/2000/svg">
<path d="M50.3203 0H14.6953C12.7568 0 11.1797 1.57711 11.1797 3.51562V7.60125C11.0483 7.65867 10.9252 7.73789 10.8198 7.84324L0.507305 18.1557C0.283477 18.3797 0.167227 18.6791 0.166875 18.9837C0.165938 18.9839 0.165 18.9841 0.164062 18.9845V56.4845C0.164062 58.423 1.74117 60.0001 3.67969 60.0001H39.3047C41.2432 60.0001 42.8203 58.423 42.8203 56.4845V52.5001H50.3203C52.2588 52.5001 53.8359 50.923 53.8359 48.9845V3.51562C53.8359 1.57711 52.2588 0 50.3203 0ZM32.4641 7.5H29.7564C29.1659 6.38602 27.9946 5.625 26.6484 5.625C24.7099 5.625 23.1328 7.20211 23.1328 9.14062V16.0494C23.1328 16.6965 23.6576 17.2213 24.3047 17.2213C24.9518 17.2213 25.4766 16.6965 25.4766 16.0494V9.14062C25.4766 8.49445 26.0023 7.96875 26.6484 7.96875C27.2946 7.96875 27.8203 8.49445 27.8203 9.14062V16.9869C27.8203 18.9254 26.2432 20.5025 24.3047 20.5025C22.3662 20.5025 20.7891 18.9254 20.7891 16.9869V8.20312C20.7891 4.97227 23.4176 2.34375 26.6484 2.34375C29.6413 2.34375 32.1155 4.59961 32.4641 7.5ZM14.6953 2.34375H20.9153C19.55 3.67992 18.6492 5.48707 18.4774 7.5H13.5234V3.51562C13.5234 2.86945 14.0491 2.34375 14.6953 2.34375ZM10.4766 11.5011V15.7617C10.4766 16.8925 9.55652 17.8125 8.42578 17.8125H4.1652L10.4766 11.5011ZM51.4922 48.9844C51.4922 49.6305 50.9665 50.1562 50.3203 50.1562H42.8203V27.4417C42.8203 26.7946 42.2955 26.2698 41.6484 26.2698C41.0013 26.2698 40.4766 26.7946 40.4766 27.4417V56.4844C40.4766 57.1305 39.9509 57.6562 39.3047 57.6562H3.67969C3.03352 57.6562 2.50781 57.1305 2.50781 56.4844V20.1562H8.42578C10.849 20.1562 12.8203 18.1849 12.8203 15.7617V9.84375H18.4453V16.9869C18.4453 20.2178 21.0738 22.8463 24.3047 22.8463C27.5355 22.8463 30.1641 20.2178 30.1641 16.9869V9.84375H39.3047C39.9509 9.84375 40.4766 10.3695 40.4766 11.0156V18.0667C40.4766 18.7138 41.0013 19.2386 41.6484 19.2386C42.2955 19.2386 42.8203 18.7138 42.8203 18.0667V11.0156C42.8203 9.07711 41.2432 7.5 39.3047 7.5H34.8193C34.6475 5.48707 33.7467 3.67992 32.3815 2.34375H50.3203C50.9665 2.34375 51.4922 2.86945 51.4922 3.51562V48.9844Z" fill="#2B7AF1"/>
<path d="M9.4292 39.7856H33.5549C34.202 39.7856 34.7268 39.2608 34.7268 38.6137C34.7268 37.9666 34.202 37.4418 33.5549 37.4418H32.1636V32.8643C32.1636 32.2171 31.6388 31.6924 30.9917 31.6924H26.5386V28.9852C26.5386 28.3381 26.0138 27.8134 25.3667 27.8134H20.9136V25.8711C20.9136 25.224 20.3888 24.6992 19.7417 24.6992H14.1167C13.4696 24.6992 12.9448 25.224 12.9448 25.8711V37.4417H10.6011V25.8711C10.6011 25.224 10.0763 24.6992 9.4292 24.6992C8.78209 24.6992 8.25732 25.224 8.25732 25.8711V38.6136C8.25732 39.2608 8.78209 39.7856 9.4292 39.7856ZM29.8198 34.0361V37.4418H26.5386V34.0361H29.8198ZM24.1948 30.1572V32.8644V37.442H20.9136V30.1573H24.1948V30.1572ZM15.2886 27.0431H18.5698V28.9854V37.4418H15.2886V27.0431Z" fill="#2B7AF1"/>
<path d="M33.6176 47.8088H9.36719C8.72008 47.8088 8.19531 48.3336 8.19531 48.9807C8.19531 49.6278 8.72008 50.1526 9.36719 50.1526H33.6176C34.2647 50.1526 34.7895 49.6278 34.7895 48.9807C34.7895 48.3336 34.2647 47.8088 33.6176 47.8088Z" fill="url(#paint0_linear)"/>
<path d="M33.6174 43.1213H14.1167C13.4696 43.1213 12.9448 43.6461 12.9448 44.2932C12.9448 44.9403 13.4696 45.4651 14.1167 45.4651H33.6173C34.2644 45.4651 34.7892 44.9403 34.7892 44.2932C34.7892 43.6461 34.2645 43.1213 33.6174 43.1213Z" fill="url(#paint1_linear)"/>
<path d="M9.3667 45.4652C9.6749 45.4652 9.97725 45.3398 10.1951 45.1219C10.4131 44.9039 10.5386 44.6015 10.5386 44.2933C10.5386 43.9851 10.4132 43.6828 10.1951 43.4648C9.97725 43.247 9.6749 43.1215 9.3667 43.1215C9.05838 43.1215 8.75604 43.2468 8.53818 43.4648C8.32022 43.6828 8.19482 43.9851 8.19482 44.2933C8.19482 44.6015 8.3201 44.9039 8.53818 45.1219C8.75604 45.3397 9.05838 45.4652 9.3667 45.4652Z" fill="url(#paint2_linear)"/>
<path d="M33.6172 52.4963H9.3667C8.71959 52.4963 8.19482 53.0211 8.19482 53.6682C8.19482 54.3153 8.71959 54.8401 9.3667 54.8401H33.6172C34.2644 54.8401 34.7891 54.3153 34.7891 53.6682C34.7891 53.0211 34.2644 52.4963 33.6172 52.4963Z" fill="url(#paint3_linear)"/>
<path d="M41.6484 21.5824C41.3402 21.5824 41.0379 21.7078 40.8199 21.9258C40.602 22.1437 40.4766 22.4461 40.4766 22.7543C40.4766 23.0625 40.6018 23.3648 40.8199 23.5828C41.0379 23.8006 41.3402 23.9261 41.6484 23.9261C41.9566 23.9261 42.259 23.8008 42.4768 23.5828C42.6948 23.3648 42.8203 23.0625 42.8203 22.7543C42.8203 22.4461 42.6949 22.1437 42.4768 21.9258C42.259 21.7078 41.9566 21.5824 41.6484 21.5824Z" fill="url(#paint4_linear)"/>
<defs>
<linearGradient id="paint0_linear" x1="8.19531" y1="48.9807" x2="34.7392" y2="47.7653" gradientUnits="userSpaceOnUse">
<stop stop-color="#FF7A00"/>
<stop offset="1" stop-color="#FFB039"/>
</linearGradient>
<linearGradient id="paint1_linear" x1="12.9448" y1="44.2932" x2="34.7627" y2="43.4726" gradientUnits="userSpaceOnUse">
<stop stop-color="#FF7A00"/>
<stop offset="1" stop-color="#FFB039"/>
</linearGradient>
<linearGradient id="paint2_linear" x1="8.19482" y1="44.2933" x2="10.539" y2="44.2839" gradientUnits="userSpaceOnUse">
<stop stop-color="#FF7A00"/>
<stop offset="1" stop-color="#FFB039"/>
</linearGradient>
<linearGradient id="paint3_linear" x1="8.19482" y1="53.6682" x2="34.7388" y2="52.4528" gradientUnits="userSpaceOnUse">
<stop stop-color="#FF7A00"/>
<stop offset="1" stop-color="#FFB039"/>
</linearGradient>
<linearGradient id="paint4_linear" x1="40.4766" y1="22.7543" x2="42.8207" y2="22.7448" gradientUnits="userSpaceOnUse">
<stop stop-color="#FF7A00"/>
<stop offset="1" stop-color="#FFB039"/>
</linearGradient>
</defs>
</svg>
